<!DOCTYPE svg PUBLIC "-//W3C//DTD SVG 1.1//EN"
 "http://www.w3.org/Graphics/SVG/1.1/DTD/svg11.dtd">
<svg width="100%" height="100%" version="1.1"
 xmlns="http://www.w3.org/2000/svg" shape-rendering="crispEdges"
 stroke-width="1" text-rendering="geometricPrecision">
<text x="100" y="14" textLength="21" font-family="Helvetica" font-size="10" fill="black" text-anchor="middle">
Orch
</text>
<text x="300" y="14" textLength="28" font-family="Helvetica" font-size="10" fill="black" text-anchor="middle">
Sched
</text>
<text x="500" y="14" textLength="17" font-family="Helvetica" font-size="10" fill="black" text-anchor="middle">
Agg
</text>
<line x1="100" y1="20" x2="100" y2="45" stroke="black"/>
<line x1="300" y1="20" x2="300" y2="45" stroke="black"/>
<line x1="500" y1="20" x2="500" y2="45" stroke="black"/>
<line x1="100" y1="69" x2="100" y2="70" stroke="black"/>
<line x1="300" y1="69" x2="300" y2="70" stroke="black"/>
<line x1="500" y1="69" x2="500" y2="70" stroke="black"/>
<line x1="8" y1="45" x2="592" y2="45" stroke="black"/>
<line x1="8" y1="69" x2="592" y2="69" stroke="black"/>
<line x1="8" y1="45" x2="8" y2="69" stroke="black"/>
<line x1="592" y1="45" x2="592" y2="69" stroke="black"/>
<text x="228" y="59" textLength="142" font-family="Helvetica" font-size="10" fill="black">
successful request for a new job
</text>
<line x1="100" y1="70" x2="100" y2="95" stroke="black"/>
<line x1="300" y1="70" x2="300" y2="95" stroke="black"/>
<line x1="500" y1="70" x2="500" y2="95" stroke="black"/>
<line x1="100" y1="95" x2="100" y2="120" stroke="black"/>
<line x1="300" y1="95" x2="300" y2="120" stroke="black"/>
<line x1="500" y1="95" x2="500" y2="120" stroke="black"/>
<text x="270" y="109" textLength="58" font-family="Helvetica" font-size="10" fill="black">
initial request
</text>
<line x1="50" y1="107" x2="269" y2="107" stroke="black" stroke-dasharray="2,2"/>
<line x1="331" y1="107" x2="550" y2="107" stroke="black" stroke-dasharray="2,2"/>
<line x1="100" y1="120" x2="100" y2="145" stroke="black"/>
<line x1="300" y1="120" x2="300" y2="145" stroke="black"/>
<line x1="500" y1="120" x2="500" y2="145" stroke="black"/>
<line x1="500" y1="132" x2="100" y2="132" stroke="black"/>
<line x1="100" y1="132" x2="110" y2="138" stroke="black"/>
<text x="239" y="130" textLength="120" font-family="Helvetica" font-size="10" fill="black">
requestJob(last_job_id="-")
</text>
<line x1="100" y1="145" x2="100" y2="170" stroke="black"/>
<line x1="300" y1="145" x2="300" y2="170" stroke="black"/>
<line x1="500" y1="145" x2="500" y2="170" stroke="black"/>
<line x1="100" y1="157" x2="300" y2="157" stroke="black"/>
<polygon fill="black" points="300,157 290,163 290,151"/>
<text x="107" y="155" textLength="184" font-family="Helvetica" font-size="10" fill="black">
get_next_job(worker_id=Agg, last_job_id)
</text>
<line x1="100" y1="170" x2="100" y2="195" stroke="black"/>
<line x1="300" y1="170" x2="300" y2="195" stroke="black"/>
<line x1="500" y1="170" x2="500" y2="195" stroke="black"/>
<text x="189" y="184" textLength="220" font-family="Helvetica" font-size="10" fill="black">
the scheduler leaves the job in the pending queue
</text>
<line x1="50" y1="182" x2="188" y2="182" stroke="black" stroke-dasharray="2,2"/>
<line x1="412" y1="182" x2="550" y2="182" stroke="black" stroke-dasharray="2,2"/>
<line x1="100" y1="195" x2="100" y2="220" stroke="black"/>
<line x1="300" y1="195" x2="300" y2="220" stroke="black"/>
<line x1="500" y1="195" x2="500" y2="220" stroke="black"/>
<line x1="300" y1="207" x2="100" y2="207" stroke="black" stroke-dasharray="2,2"/>
<polygon fill="black" points="100,207 110,213 110,201"/>
<text x="185" y="205" textLength="28" font-family="Helvetica" font-size="10" fill="black">
Job(1)
</text>
<line x1="100" y1="220" x2="100" y2="245" stroke="black"/>
<line x1="300" y1="220" x2="300" y2="245" stroke="black"/>
<line x1="500" y1="220" x2="500" y2="245" stroke="black"/>
<line x1="100" y1="232" x2="500" y2="232" stroke="black"/>
<line x1="500" y1="232" x2="490" y2="238" stroke="black"/>
<text x="254" y="230" textLength="90" font-family="Helvetica" font-size="10" fill="black">
submitJob(job_id=1)
</text>
<line x1="100" y1="245" x2="100" y2="270" stroke="black"/>
<line x1="300" y1="245" x2="300" y2="270" stroke="black"/>
<line x1="500" y1="245" x2="500" y2="270" stroke="black"/>
<line x1="500" y1="257" x2="100" y2="257" stroke="black"/>
<line x1="100" y1="257" x2="110" y2="263" stroke="black"/>
<text x="246" y="255" textLength="106" font-family="Helvetica" font-size="10" fill="black">
submitJobAck(job_id=1)
</text>
<line x1="100" y1="270" x2="100" y2="295" stroke="black"/>
<line x1="300" y1="270" x2="300" y2="295" stroke="black"/>
<line x1="500" y1="270" x2="500" y2="295" stroke="black"/>
<text x="140" y="284" textLength="319" font-family="Helvetica" font-size="10" fill="black">
now it is safe to move the job from the pending into the submitted queue
</text>
<line x1="50" y1="282" x2="139" y2="282" stroke="black" stroke-dasharray="2,2"/>
<line x1="462" y1="282" x2="550" y2="282" stroke="black" stroke-dasharray="2,2"/>
<line x1="100" y1="295" x2="100" y2="320" stroke="black"/>
<line x1="300" y1="295" x2="300" y2="320" stroke="black"/>
<line x1="500" y1="295" x2="500" y2="320" stroke="black"/>
<line x1="100" y1="307" x2="300" y2="307" stroke="black"/>
<polygon fill="black" points="300,307 290,313 290,301"/>
<text x="112" y="305" textLength="175" font-family="Helvetica" font-size="10" fill="black">
acknowledge(worker_id=Agg, job_id=1)
</text>
</svg>
