<!DOCTYPE svg PUBLIC "-//W3C//DTD SVG 1.1//EN"
 "http://www.w3.org/Graphics/SVG/1.1/DTD/svg11.dtd">
<svg width="100%" height="100%" version="1.1"
 xmlns="http://www.w3.org/2000/svg" shape-rendering="crispEdges"
 stroke-width="1" text-rendering="geometricPrecision">
<text x="66" y="14" textLength="21" font-family="Helvetica" font-size="10" fill="black" text-anchor="middle">
User
</text>
<text x="199" y="14" textLength="21" font-family="Helvetica" font-size="10" fill="black" text-anchor="middle">
Orch
</text>
<text x="332" y="14" textLength="39" font-family="Helvetica" font-size="10" fill="black" text-anchor="middle">
Sched_o
</text>
<text x="465" y="14" textLength="41" font-family="Helvetica" font-size="10" fill="black" text-anchor="middle">
GWES_o
</text>
<text x="598" y="14" textLength="17" font-family="Helvetica" font-size="10" fill="black" text-anchor="middle">
Agg
</text>
<text x="731" y="14" textLength="39" font-family="Helvetica" font-size="10" fill="black" text-anchor="middle">
Sched_a
</text>
<text x="864" y="14" textLength="41" font-family="Helvetica" font-size="10" fill="black" text-anchor="middle">
GWES_a
</text>
<text x="997" y="14" textLength="32" font-family="Helvetica" font-size="10" fill="black" text-anchor="middle">
NRE_1
</text>
<text x="1130" y="14" textLength="32" font-family="Helvetica" font-size="10" fill="black" text-anchor="middle">
NRE_2
</text>
<line x1="66" y1="20" x2="66" y2="45" stroke="black"/>
<line x1="199" y1="20" x2="199" y2="45" stroke="black"/>
<line x1="332" y1="20" x2="332" y2="45" stroke="black"/>
<line x1="465" y1="20" x2="465" y2="45" stroke="black"/>
<line x1="598" y1="20" x2="598" y2="45" stroke="black"/>
<line x1="731" y1="20" x2="731" y2="45" stroke="black"/>
<line x1="864" y1="20" x2="864" y2="45" stroke="black"/>
<line x1="997" y1="20" x2="997" y2="45" stroke="black"/>
<line x1="1130" y1="20" x2="1130" y2="45" stroke="black"/>
<line x1="66" y1="69" x2="66" y2="70" stroke="black"/>
<line x1="199" y1="69" x2="199" y2="70" stroke="black"/>
<line x1="332" y1="69" x2="332" y2="70" stroke="black"/>
<line x1="465" y1="69" x2="465" y2="70" stroke="black"/>
<line x1="598" y1="69" x2="598" y2="70" stroke="black"/>
<line x1="731" y1="69" x2="731" y2="70" stroke="black"/>
<line x1="864" y1="69" x2="864" y2="70" stroke="black"/>
<line x1="997" y1="69" x2="997" y2="70" stroke="black"/>
<line x1="1130" y1="69" x2="1130" y2="70" stroke="black"/>
<line x1="8" y1="45" x2="1189" y2="45" stroke="black"/>
<line x1="8" y1="69" x2="1189" y2="69" stroke="black"/>
<line x1="8" y1="45" x2="8" y2="69" stroke="black"/>
<line x1="1189" y1="45" x2="1189" y2="69" stroke="black"/>
<text x="492" y="59" textLength="210" font-family="Helvetica" font-size="10" fill="black">
PreStack Time Migration execution (no failures)
</text>
<line x1="66" y1="70" x2="66" y2="95" stroke="black"/>
<line x1="199" y1="70" x2="199" y2="95" stroke="black"/>
<line x1="332" y1="70" x2="332" y2="95" stroke="black"/>
<line x1="465" y1="70" x2="465" y2="95" stroke="black"/>
<line x1="598" y1="70" x2="598" y2="95" stroke="black"/>
<line x1="731" y1="70" x2="731" y2="95" stroke="black"/>
<line x1="864" y1="70" x2="864" y2="95" stroke="black"/>
<line x1="997" y1="70" x2="997" y2="95" stroke="black"/>
<line x1="1130" y1="70" x2="1130" y2="95" stroke="black"/>
<line x1="66" y1="95" x2="66" y2="120" stroke="black"/>
<line x1="199" y1="95" x2="199" y2="120" stroke="black"/>
<line x1="332" y1="95" x2="332" y2="120" stroke="black"/>
<line x1="465" y1="95" x2="465" y2="120" stroke="black"/>
<line x1="598" y1="95" x2="598" y2="120" stroke="black"/>
<line x1="731" y1="95" x2="731" y2="120" stroke="black"/>
<line x1="864" y1="95" x2="864" y2="120" stroke="black"/>
<line x1="997" y1="95" x2="997" y2="120" stroke="black"/>
<line x1="1130" y1="95" x2="1130" y2="120" stroke="black"/>
<text x="563" y="109" textLength="68" font-family="Helvetica" font-size="10" fill="black">
Job submission
</text>
<line x1="33" y1="107" x2="562" y2="107" stroke="black" stroke-dasharray="2,2"/>
<line x1="634" y1="107" x2="1164" y2="107" stroke="black" stroke-dasharray="2,2"/>
<line x1="66" y1="120" x2="66" y2="145" stroke="black"/>
<line x1="199" y1="120" x2="199" y2="145" stroke="black"/>
<line x1="332" y1="120" x2="332" y2="145" stroke="black"/>
<line x1="465" y1="120" x2="465" y2="145" stroke="black"/>
<line x1="598" y1="120" x2="598" y2="145" stroke="black"/>
<line x1="731" y1="120" x2="731" y2="145" stroke="black"/>
<line x1="864" y1="120" x2="864" y2="145" stroke="black"/>
<line x1="997" y1="120" x2="997" y2="145" stroke="black"/>
<line x1="1130" y1="120" x2="1130" y2="145" stroke="black"/>
<line x1="66" y1="132" x2="199" y2="132" stroke="black"/>
<line x1="199" y1="132" x2="189" y2="138" stroke="black"/>
<text x="94" y="130" textLength="77" font-family="Helvetica" font-size="10" fill="black">
submit(Workflow)
</text>
<line x1="66" y1="145" x2="66" y2="170" stroke="black"/>
<line x1="199" y1="145" x2="199" y2="170" stroke="black"/>
<line x1="332" y1="145" x2="332" y2="170" stroke="black"/>
<line x1="465" y1="145" x2="465" y2="170" stroke="black"/>
<line x1="598" y1="145" x2="598" y2="170" stroke="black"/>
<line x1="731" y1="145" x2="731" y2="170" stroke="black"/>
<line x1="864" y1="145" x2="864" y2="170" stroke="black"/>
<line x1="997" y1="145" x2="997" y2="170" stroke="black"/>
<line x1="1130" y1="145" x2="1130" y2="170" stroke="black"/>
<path d="M 198 162 A66,6 0 0,1 199,151" stroke="black" fill="none"/><polygon fill="black" points="199,163 189,169 189,157"/>
<text x="200" y="155" textLength="155" font-family="Helvetica" font-size="10" fill="black">
job_id = registerNewJob(Workflow)
</text>
<line x1="66" y1="170" x2="66" y2="195" stroke="black"/>
<line x1="199" y1="170" x2="199" y2="195" stroke="black"/>
<line x1="332" y1="170" x2="332" y2="195" stroke="black"/>
<line x1="465" y1="170" x2="465" y2="195" stroke="black"/>
<line x1="598" y1="170" x2="598" y2="195" stroke="black"/>
<line x1="731" y1="170" x2="731" y2="195" stroke="black"/>
<line x1="864" y1="170" x2="864" y2="195" stroke="black"/>
<line x1="997" y1="170" x2="997" y2="195" stroke="black"/>
<line x1="1130" y1="170" x2="1130" y2="195" stroke="black"/>
<line x1="199" y1="182" x2="66" y2="182" stroke="black"/>
<line x1="66" y1="182" x2="76" y2="188" stroke="black"/>
<text x="82" y="180" textLength="101" font-family="Helvetica" font-size="10" fill="black">
submitAck(job-id = "1")
</text>
<line x1="66" y1="195" x2="66" y2="220" stroke="black"/>
<line x1="199" y1="195" x2="199" y2="220" stroke="black"/>
<line x1="332" y1="195" x2="332" y2="220" stroke="black"/>
<line x1="465" y1="195" x2="465" y2="220" stroke="black"/>
<line x1="598" y1="195" x2="598" y2="220" stroke="black"/>
<line x1="731" y1="195" x2="731" y2="220" stroke="black"/>
<line x1="864" y1="195" x2="864" y2="220" stroke="black"/>
<line x1="997" y1="195" x2="997" y2="220" stroke="black"/>
<line x1="1130" y1="195" x2="1130" y2="220" stroke="black"/>
<line x1="199" y1="207" x2="465" y2="207" stroke="black"/>
<polygon fill="black" points="465,207 455,213 455,201"/>
<text x="285" y="205" textLength="92" font-family="Helvetica" font-size="10" fill="black">
init(Workflow); start()
</text>
<line x1="66" y1="220" x2="66" y2="245" stroke="black"/>
<line x1="199" y1="220" x2="199" y2="245" stroke="black"/>
<line x1="332" y1="220" x2="332" y2="245" stroke="black"/>
<line x1="465" y1="220" x2="465" y2="245" stroke="black"/>
<line x1="598" y1="220" x2="598" y2="245" stroke="black"/>
<line x1="731" y1="220" x2="731" y2="245" stroke="black"/>
<line x1="864" y1="220" x2="864" y2="245" stroke="black"/>
<line x1="997" y1="220" x2="997" y2="245" stroke="black"/>
<line x1="1130" y1="220" x2="1130" y2="245" stroke="black"/>
<line x1="598" y1="232" x2="199" y2="232" stroke="black"/>
<line x1="199" y1="232" x2="209" y2="238" stroke="black"/>
<text x="382" y="230" textLength="32" font-family="Helvetica" font-size="10" fill="black">
lifeSign
</text>
<text x="414" y="226" textLength="3" font-family="Helvetica" font-size="8" fill="black">
*
</text>
<line x1="66" y1="245" x2="66" y2="270" stroke="black"/>
<line x1="199" y1="245" x2="199" y2="270" stroke="black"/>
<line x1="332" y1="245" x2="332" y2="270" stroke="black"/>
<line x1="465" y1="245" x2="465" y2="270" stroke="black"/>
<line x1="598" y1="245" x2="598" y2="270" stroke="black"/>
<line x1="731" y1="245" x2="731" y2="270" stroke="black"/>
<line x1="864" y1="245" x2="864" y2="270" stroke="black"/>
<line x1="997" y1="245" x2="997" y2="270" stroke="black"/>
<line x1="1130" y1="245" x2="1130" y2="270" stroke="black"/>
<text x="466" y="259" textLength="263" font-family="Helvetica" font-size="10" fill="black">
* = lifeSigns are sent very seldom to keep the overhead low
</text>
<line x1="33" y1="257" x2="465" y2="257" stroke="black" stroke-dasharray="2,2"/>
<line x1="732" y1="257" x2="1164" y2="257" stroke="black" stroke-dasharray="2,2"/>
<line x1="66" y1="270" x2="66" y2="295" stroke="black"/>
<line x1="199" y1="270" x2="199" y2="295" stroke="black"/>
<line x1="332" y1="270" x2="332" y2="295" stroke="black"/>
<line x1="465" y1="270" x2="465" y2="295" stroke="black"/>
<line x1="598" y1="270" x2="598" y2="295" stroke="black"/>
<line x1="731" y1="270" x2="731" y2="295" stroke="black"/>
<line x1="864" y1="270" x2="864" y2="295" stroke="black"/>
<line x1="997" y1="270" x2="997" y2="295" stroke="black"/>
<line x1="1130" y1="270" x2="1130" y2="295" stroke="black"/>
<line x1="465" y1="282" x2="199" y2="282" stroke="black"/>
<line x1="199" y1="282" x2="209" y2="288" stroke="black"/>
<line x1="199" y1="282" x2="209" y2="276" stroke="black"/>
<text x="272" y="280" textLength="118" font-family="Helvetica" font-size="10" fill="black">
list([1] = active_transitions)
</text>
<line x1="66" y1="295" x2="66" y2="320" stroke="black"/>
<line x1="199" y1="295" x2="199" y2="320" stroke="black"/>
<line x1="332" y1="295" x2="332" y2="320" stroke="black"/>
<line x1="465" y1="295" x2="465" y2="320" stroke="black"/>
<line x1="598" y1="295" x2="598" y2="320" stroke="black"/>
<line x1="731" y1="295" x2="731" y2="320" stroke="black"/>
<line x1="864" y1="295" x2="864" y2="320" stroke="black"/>
<line x1="997" y1="295" x2="997" y2="320" stroke="black"/>
<line x1="1130" y1="295" x2="1130" y2="320" stroke="black"/>
<line x1="997" y1="307" x2="598" y2="307" stroke="black"/>
<line x1="598" y1="307" x2="608" y2="313" stroke="black"/>
<text x="781" y="305" textLength="32" font-family="Helvetica" font-size="10" fill="black">
lifeSign
</text>
<line x1="66" y1="320" x2="66" y2="345" stroke="black"/>
<line x1="199" y1="320" x2="199" y2="345" stroke="black"/>
<line x1="332" y1="320" x2="332" y2="345" stroke="black"/>
<line x1="465" y1="320" x2="465" y2="345" stroke="black"/>
<line x1="598" y1="320" x2="598" y2="345" stroke="black"/>
<line x1="731" y1="320" x2="731" y2="345" stroke="black"/>
<line x1="864" y1="320" x2="864" y2="345" stroke="black"/>
<line x1="997" y1="320" x2="997" y2="345" stroke="black"/>
<line x1="1130" y1="320" x2="1130" y2="345" stroke="black"/>
<line x1="199" y1="332" x2="332" y2="332" stroke="black"/>
<polygon fill="black" points="332,332 322,338 322,326"/>
<text x="237" y="330" textLength="57" font-family="Helvetica" font-size="10" fill="black">
schedule([1])
</text>
<line x1="66" y1="345" x2="66" y2="370" stroke="black"/>
<line x1="199" y1="345" x2="199" y2="370" stroke="black"/>
<line x1="332" y1="345" x2="332" y2="370" stroke="black"/>
<line x1="465" y1="345" x2="465" y2="370" stroke="black"/>
<line x1="598" y1="345" x2="598" y2="370" stroke="black"/>
<line x1="731" y1="345" x2="731" y2="370" stroke="black"/>
<line x1="864" y1="345" x2="864" y2="370" stroke="black"/>
<line x1="997" y1="345" x2="997" y2="370" stroke="black"/>
<line x1="1130" y1="345" x2="1130" y2="370" stroke="black"/>
<line x1="332" y1="357" x2="199" y2="357" stroke="black"/>
<polygon fill="black" points="199,357 209,363 209,351"/>
<text x="241" y="355" textLength="49" font-family="Helvetica" font-size="10" fill="black">
dispatch(1)
</text>
<line x1="66" y1="370" x2="66" y2="395" stroke="black"/>
<line x1="199" y1="370" x2="199" y2="395" stroke="black"/>
<line x1="332" y1="370" x2="332" y2="395" stroke="black"/>
<line x1="465" y1="370" x2="465" y2="395" stroke="black"/>
<line x1="598" y1="370" x2="598" y2="395" stroke="black"/>
<line x1="731" y1="370" x2="731" y2="395" stroke="black"/>
<line x1="864" y1="370" x2="864" y2="395" stroke="black"/>
<line x1="997" y1="370" x2="997" y2="395" stroke="black"/>
<line x1="1130" y1="370" x2="1130" y2="395" stroke="black"/>
<line x1="199" y1="382" x2="598" y2="382" stroke="black"/>
<line x1="598" y1="382" x2="588" y2="388" stroke="black"/>
<text x="339" y="380" textLength="118" font-family="Helvetica" font-size="10" fill="black">
submit(Workflow, job-id=1)
</text>
<line x1="66" y1="395" x2="66" y2="420" stroke="black"/>
<line x1="199" y1="395" x2="199" y2="420" stroke="black"/>
<line x1="332" y1="395" x2="332" y2="420" stroke="black"/>
<line x1="465" y1="395" x2="465" y2="420" stroke="black"/>
<line x1="598" y1="395" x2="598" y2="420" stroke="black"/>
<line x1="731" y1="395" x2="731" y2="420" stroke="black"/>
<line x1="864" y1="395" x2="864" y2="420" stroke="black"/>
<line x1="997" y1="395" x2="997" y2="420" stroke="black"/>
<line x1="1130" y1="395" x2="1130" y2="420" stroke="black"/>
<line x1="1130" y1="407" x2="598" y2="407" stroke="black"/>
<line x1="598" y1="407" x2="608" y2="413" stroke="black"/>
<text x="847" y="405" textLength="32" font-family="Helvetica" font-size="10" fill="black">
lifeSign
</text>
<line x1="66" y1="420" x2="66" y2="445" stroke="black"/>
<line x1="199" y1="420" x2="199" y2="445" stroke="black"/>
<line x1="332" y1="420" x2="332" y2="445" stroke="black"/>
<line x1="465" y1="420" x2="465" y2="445" stroke="black"/>
<line x1="598" y1="420" x2="598" y2="445" stroke="black"/>
<line x1="731" y1="420" x2="731" y2="445" stroke="black"/>
<line x1="864" y1="420" x2="864" y2="445" stroke="black"/>
<line x1="997" y1="420" x2="997" y2="445" stroke="black"/>
<line x1="1130" y1="420" x2="1130" y2="445" stroke="black"/>
<line x1="66" y1="469" x2="66" y2="470" stroke="black"/>
<line x1="199" y1="469" x2="199" y2="470" stroke="black"/>
<line x1="332" y1="469" x2="332" y2="470" stroke="black"/>
<line x1="465" y1="469" x2="465" y2="470" stroke="black"/>
<line x1="598" y1="469" x2="598" y2="470" stroke="black"/>
<line x1="731" y1="469" x2="731" y2="470" stroke="black"/>
<line x1="864" y1="469" x2="864" y2="470" stroke="black"/>
<line x1="997" y1="469" x2="997" y2="470" stroke="black"/>
<line x1="1130" y1="469" x2="1130" y2="470" stroke="black"/>
<line x1="14" y1="445" x2="1183" y2="445" stroke="black"/>
<line x1="14" y1="469" x2="1183" y2="469" stroke="black"/>
<line x1="14" y1="445" x2="8" y2="457" stroke="black"/>
<line x1="14" y1="469" x2="8" y2="457" stroke="black"/>
<line x1="1183" y1="445" x2="1189" y2="457" stroke="black"/>
<line x1="1183" y1="469" x2="1189" y2="457" stroke="black"/>
<text x="526" y="459" textLength="142" font-family="Helvetica" font-size="10" fill="black">
Execution on Aggregator begins
</text>
<line x1="66" y1="470" x2="66" y2="495" stroke="black"/>
<line x1="199" y1="470" x2="199" y2="495" stroke="black"/>
<line x1="332" y1="470" x2="332" y2="495" stroke="black"/>
<line x1="465" y1="470" x2="465" y2="495" stroke="black"/>
<line x1="598" y1="470" x2="598" y2="495" stroke="black"/>
<line x1="731" y1="470" x2="731" y2="495" stroke="black"/>
<line x1="864" y1="470" x2="864" y2="495" stroke="black"/>
<line x1="997" y1="470" x2="997" y2="495" stroke="black"/>
<line x1="1130" y1="470" x2="1130" y2="495" stroke="black"/>
<line x1="66" y1="495" x2="66" y2="520" stroke="black"/>
<line x1="199" y1="495" x2="199" y2="520" stroke="black"/>
<line x1="332" y1="495" x2="332" y2="520" stroke="black"/>
<line x1="465" y1="495" x2="465" y2="520" stroke="black"/>
<line x1="598" y1="495" x2="598" y2="520" stroke="black"/>
<line x1="731" y1="495" x2="731" y2="520" stroke="black"/>
<line x1="864" y1="495" x2="864" y2="520" stroke="black"/>
<line x1="997" y1="495" x2="997" y2="520" stroke="black"/>
<line x1="1130" y1="495" x2="1130" y2="520" stroke="black"/>
<line x1="598" y1="507" x2="199" y2="507" stroke="black"/>
<line x1="199" y1="507" x2="209" y2="513" stroke="black"/>
<text x="354" y="505" textLength="88" font-family="Helvetica" font-size="10" fill="black">
submitAck(job-id=1)
</text>
<line x1="66" y1="520" x2="66" y2="545" stroke="black"/>
<line x1="199" y1="520" x2="199" y2="545" stroke="black"/>
<line x1="332" y1="520" x2="332" y2="545" stroke="black"/>
<line x1="465" y1="520" x2="465" y2="545" stroke="black"/>
<line x1="598" y1="520" x2="598" y2="545" stroke="black"/>
<line x1="731" y1="520" x2="731" y2="545" stroke="black"/>
<line x1="864" y1="520" x2="864" y2="545" stroke="black"/>
<line x1="997" y1="520" x2="997" y2="545" stroke="black"/>
<line x1="1130" y1="520" x2="1130" y2="545" stroke="black"/>
<line x1="997" y1="532" x2="598" y2="532" stroke="black"/>
<line x1="598" y1="532" x2="608" y2="538" stroke="black"/>
<text x="786" y="530" textLength="22" font-family="Helvetica" font-size="10" fill="black">
poll()
</text>
<line x1="66" y1="545" x2="66" y2="570" stroke="black"/>
<line x1="199" y1="545" x2="199" y2="570" stroke="black"/>
<line x1="332" y1="545" x2="332" y2="570" stroke="black"/>
<line x1="465" y1="545" x2="465" y2="570" stroke="black"/>
<line x1="598" y1="545" x2="598" y2="570" stroke="black"/>
<line x1="731" y1="545" x2="731" y2="570" stroke="black"/>
<line x1="864" y1="545" x2="864" y2="570" stroke="black"/>
<line x1="997" y1="545" x2="997" y2="570" stroke="black"/>
<line x1="1130" y1="545" x2="1130" y2="570" stroke="black"/>
<line x1="598" y1="557" x2="731" y2="557" stroke="black"/>
<polygon fill="black" points="731,557 721,563 721,551"/>
<text x="638" y="555" textLength="52" font-family="Helvetica" font-size="10" fill="black">
schedule(1)
</text>
<line x1="66" y1="570" x2="66" y2="595" stroke="black"/>
<line x1="199" y1="570" x2="199" y2="595" stroke="black"/>
<line x1="332" y1="570" x2="332" y2="595" stroke="black"/>
<line x1="465" y1="570" x2="465" y2="595" stroke="black"/>
<line x1="598" y1="570" x2="598" y2="595" stroke="black"/>
<line x1="731" y1="570" x2="731" y2="595" stroke="black"/>
<line x1="864" y1="570" x2="864" y2="595" stroke="black"/>
<line x1="997" y1="570" x2="997" y2="595" stroke="black"/>
<line x1="1130" y1="570" x2="1130" y2="595" stroke="black"/>
<line x1="1130" y1="582" x2="598" y2="582" stroke="black"/>
<line x1="598" y1="582" x2="608" y2="588" stroke="black"/>
<text x="852" y="580" textLength="22" font-family="Helvetica" font-size="10" fill="black">
poll()
</text>
<line x1="66" y1="595" x2="66" y2="620" stroke="black"/>
<line x1="199" y1="595" x2="199" y2="620" stroke="black"/>
<line x1="332" y1="595" x2="332" y2="620" stroke="black"/>
<line x1="465" y1="595" x2="465" y2="620" stroke="black"/>
<line x1="598" y1="595" x2="598" y2="620" stroke="black"/>
<line x1="731" y1="595" x2="731" y2="620" stroke="black"/>
<line x1="864" y1="595" x2="864" y2="620" stroke="black"/>
<line x1="997" y1="595" x2="997" y2="620" stroke="black"/>
<line x1="1130" y1="595" x2="1130" y2="620" stroke="black"/>
<line x1="731" y1="607" x2="598" y2="607" stroke="black"/>
<polygon fill="black" points="598,607 608,613 608,601"/>
<text x="640" y="605" textLength="49" font-family="Helvetica" font-size="10" fill="black">
dispatch(1)
</text>
<line x1="66" y1="620" x2="66" y2="645" stroke="black"/>
<line x1="199" y1="620" x2="199" y2="645" stroke="black"/>
<line x1="332" y1="620" x2="332" y2="645" stroke="black"/>
<line x1="465" y1="620" x2="465" y2="645" stroke="black"/>
<line x1="598" y1="620" x2="598" y2="645" stroke="black"/>
<line x1="731" y1="620" x2="731" y2="645" stroke="black"/>
<line x1="864" y1="620" x2="864" y2="645" stroke="black"/>
<line x1="997" y1="620" x2="997" y2="645" stroke="black"/>
<line x1="1130" y1="620" x2="1130" y2="645" stroke="black"/>
<line x1="598" y1="632" x2="864" y2="632" stroke="black"/>
<polygon fill="black" points="864,632 854,638 854,626"/>
<text x="698" y="630" textLength="65" font-family="Helvetica" font-size="10" fill="black">
init(1); start(1);
</text>
<line x1="66" y1="645" x2="66" y2="670" stroke="black"/>
<line x1="199" y1="645" x2="199" y2="670" stroke="black"/>
<line x1="332" y1="645" x2="332" y2="670" stroke="black"/>
<line x1="465" y1="645" x2="465" y2="670" stroke="black"/>
<line x1="598" y1="645" x2="598" y2="670" stroke="black"/>
<line x1="731" y1="645" x2="731" y2="670" stroke="black"/>
<line x1="864" y1="645" x2="864" y2="670" stroke="black"/>
<line x1="997" y1="645" x2="997" y2="670" stroke="black"/>
<line x1="1130" y1="645" x2="1130" y2="670" stroke="black"/>
<line x1="997" y1="657" x2="598" y2="657" stroke="black"/>
<line x1="598" y1="657" x2="608" y2="663" stroke="black"/>
<text x="786" y="655" textLength="22" font-family="Helvetica" font-size="10" fill="black">
poll()
</text>
<line x1="66" y1="670" x2="66" y2="695" stroke="black"/>
<line x1="199" y1="670" x2="199" y2="695" stroke="black"/>
<line x1="332" y1="670" x2="332" y2="695" stroke="black"/>
<line x1="465" y1="670" x2="465" y2="695" stroke="black"/>
<line x1="598" y1="670" x2="598" y2="695" stroke="black"/>
<line x1="731" y1="670" x2="731" y2="695" stroke="black"/>
<line x1="864" y1="670" x2="864" y2="695" stroke="black"/>
<line x1="997" y1="670" x2="997" y2="695" stroke="black"/>
<line x1="1130" y1="670" x2="1130" y2="695" stroke="black"/>
<line x1="864" y1="682" x2="598" y2="682" stroke="black"/>
<line x1="598" y1="682" x2="608" y2="688" stroke="black"/>
<line x1="598" y1="682" x2="608" y2="676" stroke="black"/>
<text x="642" y="680" textLength="176" font-family="Helvetica" font-size="10" fill="black">
activitiesReady([1.1, 1.2, 1.3, ..., 1.102])
</text>
<text x="818" y="676" textLength="3" font-family="Helvetica" font-size="8" fill="black">
*
</text>
<line x1="66" y1="695" x2="66" y2="720" stroke="black"/>
<line x1="199" y1="695" x2="199" y2="720" stroke="black"/>
<line x1="332" y1="695" x2="332" y2="720" stroke="black"/>
<line x1="465" y1="695" x2="465" y2="720" stroke="black"/>
<line x1="598" y1="695" x2="598" y2="720" stroke="black"/>
<line x1="731" y1="695" x2="731" y2="720" stroke="black"/>
<line x1="864" y1="695" x2="864" y2="720" stroke="black"/>
<line x1="997" y1="695" x2="997" y2="720" stroke="black"/>
<line x1="1130" y1="695" x2="1130" y2="720" stroke="black"/>
<text x="348" y="709" textLength="499" font-family="Helvetica" font-size="10" fill="black">
* = 1.1 represents createOutputGather, 1.2-1.102 represents calculateOffsetVolume activities, 100 OffsetClasses
</text>
<line x1="33" y1="707" x2="347" y2="707" stroke="black" stroke-dasharray="2,2"/>
<line x1="850" y1="707" x2="1164" y2="707" stroke="black" stroke-dasharray="2,2"/>
<line x1="66" y1="720" x2="66" y2="745" stroke="black"/>
<line x1="199" y1="720" x2="199" y2="745" stroke="black"/>
<line x1="332" y1="720" x2="332" y2="745" stroke="black"/>
<line x1="465" y1="720" x2="465" y2="745" stroke="black"/>
<line x1="598" y1="720" x2="598" y2="745" stroke="black"/>
<line x1="731" y1="720" x2="731" y2="745" stroke="black"/>
<line x1="864" y1="720" x2="864" y2="745" stroke="black"/>
<line x1="997" y1="720" x2="997" y2="745" stroke="black"/>
<line x1="1130" y1="720" x2="1130" y2="745" stroke="black"/>
<line x1="598" y1="732" x2="731" y2="732" stroke="black"/>
<polygon fill="black" points="731,732 721,738 721,726"/>
<text x="637" y="730" textLength="55" font-family="Helvetica" font-size="10" fill="black">
schedule(...)
</text>
<line x1="66" y1="745" x2="66" y2="770" stroke="black"/>
<line x1="199" y1="745" x2="199" y2="770" stroke="black"/>
<line x1="332" y1="745" x2="332" y2="770" stroke="black"/>
<line x1="465" y1="745" x2="465" y2="770" stroke="black"/>
<line x1="598" y1="745" x2="598" y2="770" stroke="black"/>
<line x1="731" y1="745" x2="731" y2="770" stroke="black"/>
<line x1="864" y1="745" x2="864" y2="770" stroke="black"/>
<line x1="997" y1="745" x2="997" y2="770" stroke="black"/>
<line x1="1130" y1="745" x2="1130" y2="770" stroke="black"/>
<text x="403" y="759" textLength="388" font-family="Helvetica" font-size="10" fill="black">
The scheduler fills in its internal schedule according to some not further defined scheme
</text>
<line x1="33" y1="757" x2="402" y2="757" stroke="black" stroke-dasharray="2,2"/>
<line x1="794" y1="757" x2="1164" y2="757" stroke="black" stroke-dasharray="2,2"/>
<line x1="66" y1="770" x2="66" y2="795" stroke="black"/>
<line x1="199" y1="770" x2="199" y2="795" stroke="black"/>
<line x1="332" y1="770" x2="332" y2="795" stroke="black"/>
<line x1="465" y1="770" x2="465" y2="795" stroke="black"/>
<line x1="598" y1="770" x2="598" y2="795" stroke="black"/>
<line x1="731" y1="770" x2="731" y2="795" stroke="black"/>
<line x1="864" y1="770" x2="864" y2="795" stroke="black"/>
<line x1="997" y1="770" x2="997" y2="795" stroke="black"/>
<line x1="1130" y1="770" x2="1130" y2="795" stroke="black"/>
<line x1="997" y1="782" x2="598" y2="782" stroke="black"/>
<line x1="598" y1="782" x2="608" y2="788" stroke="black"/>
<text x="786" y="780" textLength="22" font-family="Helvetica" font-size="10" fill="black">
poll()
</text>
<line x1="66" y1="795" x2="66" y2="820" stroke="black"/>
<line x1="199" y1="795" x2="199" y2="820" stroke="black"/>
<line x1="332" y1="795" x2="332" y2="820" stroke="black"/>
<line x1="465" y1="795" x2="465" y2="820" stroke="black"/>
<line x1="598" y1="795" x2="598" y2="820" stroke="black"/>
<line x1="731" y1="795" x2="731" y2="820" stroke="black"/>
<line x1="864" y1="795" x2="864" y2="820" stroke="black"/>
<line x1="997" y1="795" x2="997" y2="820" stroke="black"/>
<line x1="1130" y1="795" x2="1130" y2="820" stroke="black"/>
<line x1="598" y1="807" x2="997" y2="807" stroke="black"/>
<line x1="997" y1="807" x2="987" y2="813" stroke="black"/>
<text x="770" y="805" textLength="55" font-family="Helvetica" font-size="10" fill="black">
execute(1.1)
</text>
<line x1="66" y1="820" x2="66" y2="845" stroke="black"/>
<line x1="199" y1="820" x2="199" y2="845" stroke="black"/>
<line x1="332" y1="820" x2="332" y2="845" stroke="black"/>
<line x1="465" y1="820" x2="465" y2="845" stroke="black"/>
<line x1="598" y1="820" x2="598" y2="845" stroke="black"/>
<line x1="731" y1="820" x2="731" y2="845" stroke="black"/>
<line x1="864" y1="820" x2="864" y2="845" stroke="black"/>
<line x1="997" y1="820" x2="997" y2="845" stroke="black"/>
<line x1="1130" y1="820" x2="1130" y2="845" stroke="black"/>
<line x1="1130" y1="832" x2="598" y2="832" stroke="black"/>
<line x1="598" y1="832" x2="608" y2="838" stroke="black"/>
<text x="852" y="830" textLength="22" font-family="Helvetica" font-size="10" fill="black">
poll()
</text>
<line x1="66" y1="845" x2="66" y2="870" stroke="black"/>
<line x1="199" y1="845" x2="199" y2="870" stroke="black"/>
<line x1="332" y1="845" x2="332" y2="870" stroke="black"/>
<line x1="465" y1="845" x2="465" y2="870" stroke="black"/>
<line x1="598" y1="845" x2="598" y2="870" stroke="black"/>
<line x1="731" y1="845" x2="731" y2="870" stroke="black"/>
<line x1="864" y1="845" x2="864" y2="870" stroke="black"/>
<line x1="997" y1="845" x2="997" y2="870" stroke="black"/>
<line x1="1130" y1="845" x2="1130" y2="870" stroke="black"/>
<line x1="598" y1="857" x2="1130" y2="857" stroke="black"/>
<line x1="1130" y1="857" x2="1120" y2="863" stroke="black"/>
<text x="836" y="855" textLength="55" font-family="Helvetica" font-size="10" fill="black">
execute(1.2)
</text>
<line x1="66" y1="870" x2="66" y2="895" stroke="black" stroke-dasharray="2,2"/>
<line x1="199" y1="870" x2="199" y2="895" stroke="black" stroke-dasharray="2,2"/>
<line x1="332" y1="870" x2="332" y2="895" stroke="black" stroke-dasharray="2,2"/>
<line x1="465" y1="870" x2="465" y2="895" stroke="black" stroke-dasharray="2,2"/>
<line x1="598" y1="870" x2="598" y2="895" stroke="black" stroke-dasharray="2,2"/>
<line x1="731" y1="870" x2="731" y2="895" stroke="black" stroke-dasharray="2,2"/>
<line x1="864" y1="870" x2="864" y2="895" stroke="black" stroke-dasharray="2,2"/>
<line x1="997" y1="870" x2="997" y2="895" stroke="black" stroke-dasharray="2,2"/>
<line x1="1130" y1="870" x2="1130" y2="895" stroke="black" stroke-dasharray="2,2"/>
<line x1="66" y1="895" x2="66" y2="920" stroke="black"/>
<line x1="199" y1="895" x2="199" y2="920" stroke="black"/>
<line x1="332" y1="895" x2="332" y2="920" stroke="black"/>
<line x1="465" y1="895" x2="465" y2="920" stroke="black"/>
<line x1="598" y1="895" x2="598" y2="920" stroke="black"/>
<line x1="731" y1="895" x2="731" y2="920" stroke="black"/>
<line x1="864" y1="895" x2="864" y2="920" stroke="black"/>
<line x1="997" y1="895" x2="997" y2="920" stroke="black"/>
<line x1="1130" y1="895" x2="1130" y2="920" stroke="black"/>
<line x1="997" y1="907" x2="598" y2="907" stroke="black"/>
<line x1="598" y1="907" x2="608" y2="913" stroke="black"/>
<text x="669" y="905" textLength="257" font-family="Helvetica" font-size="10" fill="black">
jobFinished(1.1, token=[MemoryToken(OutputGather,rw)])
</text>
<line x1="66" y1="920" x2="66" y2="945" stroke="black"/>
<line x1="199" y1="920" x2="199" y2="945" stroke="black"/>
<line x1="332" y1="920" x2="332" y2="945" stroke="black"/>
<line x1="465" y1="920" x2="465" y2="945" stroke="black"/>
<line x1="598" y1="920" x2="598" y2="945" stroke="black"/>
<line x1="731" y1="920" x2="731" y2="945" stroke="black"/>
<line x1="864" y1="920" x2="864" y2="945" stroke="black"/>
<line x1="997" y1="920" x2="997" y2="945" stroke="black"/>
<line x1="1130" y1="920" x2="1130" y2="945" stroke="black"/>
<text x="449" y="934" textLength="297" font-family="Helvetica" font-size="10" fill="black">
If we use a jobFinishedAck message, we can piggybag the next job
</text>
<line x1="33" y1="932" x2="448" y2="932" stroke="black" stroke-dasharray="2,2"/>
<line x1="749" y1="932" x2="1164" y2="932" stroke="black" stroke-dasharray="2,2"/>
<line x1="66" y1="945" x2="66" y2="970" stroke="black"/>
<line x1="199" y1="945" x2="199" y2="970" stroke="black"/>
<line x1="332" y1="945" x2="332" y2="970" stroke="black"/>
<line x1="465" y1="945" x2="465" y2="970" stroke="black"/>
<line x1="598" y1="945" x2="598" y2="970" stroke="black"/>
<line x1="731" y1="945" x2="731" y2="970" stroke="black"/>
<line x1="864" y1="945" x2="864" y2="970" stroke="black"/>
<line x1="997" y1="945" x2="997" y2="970" stroke="black"/>
<line x1="1130" y1="945" x2="1130" y2="970" stroke="black"/>
<line x1="1130" y1="957" x2="598" y2="957" stroke="black"/>
<line x1="598" y1="957" x2="608" y2="963" stroke="black"/>
<text x="639" y="955" textLength="448" font-family="Helvetica" font-size="10" fill="black">
jobFinished(1.2, token=[MemoryToken(OffsetClass,ro), MemoryToken(OffsetVolume, local to node!)])
</text>
<line x1="66" y1="970" x2="66" y2="995" stroke="black"/>
<line x1="199" y1="970" x2="199" y2="995" stroke="black"/>
<line x1="332" y1="970" x2="332" y2="995" stroke="black"/>
<line x1="465" y1="970" x2="465" y2="995" stroke="black"/>
<line x1="598" y1="970" x2="598" y2="995" stroke="black"/>
<line x1="731" y1="970" x2="731" y2="995" stroke="black"/>
<line x1="864" y1="970" x2="864" y2="995" stroke="black"/>
<line x1="997" y1="970" x2="997" y2="995" stroke="black"/>
<line x1="1130" y1="970" x2="1130" y2="995" stroke="black"/>
<line x1="864" y1="982" x2="598" y2="982" stroke="black"/>
<line x1="598" y1="982" x2="608" y2="988" stroke="black"/>
<line x1="598" y1="982" x2="608" y2="976" stroke="black"/>
<text x="678" y="980" textLength="104" font-family="Helvetica" font-size="10" fill="black">
activitiesReady([1.103])
</text>
<text x="782" y="976" textLength="3" font-family="Helvetica" font-size="8" fill="black">
*
</text>
<line x1="66" y1="995" x2="66" y2="1020" stroke="black"/>
<line x1="199" y1="995" x2="199" y2="1020" stroke="black"/>
<line x1="332" y1="995" x2="332" y2="1020" stroke="black"/>
<line x1="465" y1="995" x2="465" y2="1020" stroke="black"/>
<line x1="598" y1="995" x2="598" y2="1020" stroke="black"/>
<line x1="731" y1="995" x2="731" y2="1020" stroke="black"/>
<line x1="864" y1="995" x2="864" y2="1020" stroke="black"/>
<line x1="997" y1="995" x2="997" y2="1020" stroke="black"/>
<line x1="1130" y1="995" x2="1130" y2="1020" stroke="black"/>
<text x="275" y="1009" textLength="645" font-family="Helvetica" font-size="10" fill="black">
* = 1.103 represents a 'store' Operation, those are available after the first calculate, the OffsetVolume-MemoryToken has to be taken into account!
</text>
<line x1="33" y1="1007" x2="274" y2="1007" stroke="black" stroke-dasharray="2,2"/>
<line x1="923" y1="1007" x2="1164" y2="1007" stroke="black" stroke-dasharray="2,2"/>
<line x1="66" y1="1020" x2="66" y2="1045" stroke="black" stroke-dasharray="2,2"/>
<line x1="199" y1="1020" x2="199" y2="1045" stroke="black" stroke-dasharray="2,2"/>
<line x1="332" y1="1020" x2="332" y2="1045" stroke="black" stroke-dasharray="2,2"/>
<line x1="465" y1="1020" x2="465" y2="1045" stroke="black" stroke-dasharray="2,2"/>
<line x1="598" y1="1020" x2="598" y2="1045" stroke="black" stroke-dasharray="2,2"/>
<line x1="731" y1="1020" x2="731" y2="1045" stroke="black" stroke-dasharray="2,2"/>
<line x1="864" y1="1020" x2="864" y2="1045" stroke="black" stroke-dasharray="2,2"/>
<line x1="997" y1="1020" x2="997" y2="1045" stroke="black" stroke-dasharray="2,2"/>
<line x1="1130" y1="1020" x2="1130" y2="1045" stroke="black" stroke-dasharray="2,2"/>
<text x="373" y="1034" textLength="449" font-family="Helvetica" font-size="10" fill="black">
The previous steps are repeated until no more activities can be executed and all activities are finished
</text>
<line x1="66" y1="1045" x2="66" y2="1070" stroke="black"/>
<line x1="199" y1="1045" x2="199" y2="1070" stroke="black"/>
<line x1="332" y1="1045" x2="332" y2="1070" stroke="black"/>
<line x1="465" y1="1045" x2="465" y2="1070" stroke="black"/>
<line x1="598" y1="1045" x2="598" y2="1070" stroke="black"/>
<line x1="731" y1="1045" x2="731" y2="1070" stroke="black"/>
<line x1="864" y1="1045" x2="864" y2="1070" stroke="black"/>
<line x1="997" y1="1045" x2="997" y2="1070" stroke="black"/>
<line x1="1130" y1="1045" x2="1130" y2="1070" stroke="black"/>
<line x1="864" y1="1057" x2="598" y2="1057" stroke="black"/>
<line x1="598" y1="1057" x2="608" y2="1063" stroke="black"/>
<line x1="598" y1="1057" x2="608" y2="1051" stroke="black"/>
<text x="689" y="1055" textLength="83" font-family="Helvetica" font-size="10" fill="black">
workflowFinished()
</text>
<line x1="66" y1="1070" x2="66" y2="1095" stroke="black"/>
<line x1="199" y1="1070" x2="199" y2="1095" stroke="black"/>
<line x1="332" y1="1070" x2="332" y2="1095" stroke="black"/>
<line x1="465" y1="1070" x2="465" y2="1095" stroke="black"/>
<line x1="598" y1="1070" x2="598" y2="1095" stroke="black"/>
<line x1="731" y1="1070" x2="731" y2="1095" stroke="black"/>
<line x1="864" y1="1070" x2="864" y2="1095" stroke="black"/>
<line x1="997" y1="1070" x2="997" y2="1095" stroke="black"/>
<line x1="1130" y1="1070" x2="1130" y2="1095" stroke="black"/>
<path d="M 598 1076 A66,6 0 0,1 597,1087" stroke="black" fill="none"/><polygon fill="black" points="598,1088 608,1094 608,1082"/>
<text x="493" y="1080" textLength="102" font-family="Helvetica" font-size="10" fill="black">
jobFinished(1, [Token])
</text>
<line x1="66" y1="1095" x2="66" y2="1120" stroke="black"/>
<line x1="199" y1="1095" x2="199" y2="1120" stroke="black"/>
<line x1="332" y1="1095" x2="332" y2="1120" stroke="black"/>
<line x1="465" y1="1095" x2="465" y2="1120" stroke="black"/>
<line x1="598" y1="1095" x2="598" y2="1120" stroke="black"/>
<line x1="731" y1="1095" x2="731" y2="1120" stroke="black"/>
<line x1="864" y1="1095" x2="864" y2="1120" stroke="black"/>
<line x1="997" y1="1095" x2="997" y2="1120" stroke="black"/>
<line x1="1130" y1="1095" x2="1130" y2="1120" stroke="black"/>
<line x1="66" y1="1144" x2="66" y2="1145" stroke="black"/>
<line x1="199" y1="1144" x2="199" y2="1145" stroke="black"/>
<line x1="332" y1="1144" x2="332" y2="1145" stroke="black"/>
<line x1="465" y1="1144" x2="465" y2="1145" stroke="black"/>
<line x1="598" y1="1144" x2="598" y2="1145" stroke="black"/>
<line x1="731" y1="1144" x2="731" y2="1145" stroke="black"/>
<line x1="864" y1="1144" x2="864" y2="1145" stroke="black"/>
<line x1="997" y1="1144" x2="997" y2="1145" stroke="black"/>
<line x1="1130" y1="1144" x2="1130" y2="1145" stroke="black"/>
<line x1="14" y1="1120" x2="1183" y2="1120" stroke="black"/>
<line x1="14" y1="1144" x2="1183" y2="1144" stroke="black"/>
<line x1="14" y1="1120" x2="8" y2="1132" stroke="black"/>
<line x1="14" y1="1144" x2="8" y2="1132" stroke="black"/>
<line x1="1183" y1="1120" x2="1189" y2="1132" stroke="black"/>
<line x1="1183" y1="1144" x2="1189" y2="1132" stroke="black"/>
<text x="524" y="1134" textLength="147" font-family="Helvetica" font-size="10" fill="black">
Execution on Aggregator finished
</text>
<line x1="66" y1="1145" x2="66" y2="1170" stroke="black"/>
<line x1="199" y1="1145" x2="199" y2="1170" stroke="black"/>
<line x1="332" y1="1145" x2="332" y2="1170" stroke="black"/>
<line x1="465" y1="1145" x2="465" y2="1170" stroke="black"/>
<line x1="598" y1="1145" x2="598" y2="1170" stroke="black"/>
<line x1="731" y1="1145" x2="731" y2="1170" stroke="black"/>
<line x1="864" y1="1145" x2="864" y2="1170" stroke="black"/>
<line x1="997" y1="1145" x2="997" y2="1170" stroke="black"/>
<line x1="1130" y1="1145" x2="1130" y2="1170" stroke="black"/>
<line x1="66" y1="1170" x2="66" y2="1195" stroke="black"/>
<line x1="199" y1="1170" x2="199" y2="1195" stroke="black"/>
<line x1="332" y1="1170" x2="332" y2="1195" stroke="black"/>
<line x1="465" y1="1170" x2="465" y2="1195" stroke="black"/>
<line x1="598" y1="1170" x2="598" y2="1195" stroke="black"/>
<line x1="731" y1="1170" x2="731" y2="1195" stroke="black"/>
<line x1="864" y1="1170" x2="864" y2="1195" stroke="black"/>
<line x1="997" y1="1170" x2="997" y2="1195" stroke="black"/>
<line x1="1130" y1="1170" x2="1130" y2="1195" stroke="black"/>
<line x1="598" y1="1182" x2="199" y2="1182" stroke="black"/>
<line x1="199" y1="1182" x2="209" y2="1188" stroke="black"/>
<text x="347" y="1180" textLength="102" font-family="Helvetica" font-size="10" fill="black">
jobFinished(1, [Token])
</text>
<line x1="66" y1="1195" x2="66" y2="1220" stroke="black"/>
<line x1="199" y1="1195" x2="199" y2="1220" stroke="black"/>
<line x1="332" y1="1195" x2="332" y2="1220" stroke="black"/>
<line x1="465" y1="1195" x2="465" y2="1220" stroke="black"/>
<line x1="598" y1="1195" x2="598" y2="1220" stroke="black"/>
<line x1="731" y1="1195" x2="731" y2="1220" stroke="black"/>
<line x1="864" y1="1195" x2="864" y2="1220" stroke="black"/>
<line x1="997" y1="1195" x2="997" y2="1220" stroke="black"/>
<line x1="1130" y1="1195" x2="1130" y2="1220" stroke="black"/>
<line x1="66" y1="1207" x2="199" y2="1207" stroke="black"/>
<line x1="199" y1="1207" x2="189" y2="1213" stroke="black"/>
<text x="100" y="1205" textLength="65" font-family="Helvetica" font-size="10" fill="black">
queryStatus(1)
</text>
<line x1="66" y1="1220" x2="66" y2="1245" stroke="black"/>
<line x1="199" y1="1220" x2="199" y2="1245" stroke="black"/>
<line x1="332" y1="1220" x2="332" y2="1245" stroke="black"/>
<line x1="465" y1="1220" x2="465" y2="1245" stroke="black"/>
<line x1="598" y1="1220" x2="598" y2="1245" stroke="black"/>
<line x1="731" y1="1220" x2="731" y2="1245" stroke="black"/>
<line x1="864" y1="1220" x2="864" y2="1245" stroke="black"/>
<line x1="997" y1="1220" x2="997" y2="1245" stroke="black"/>
<line x1="1130" y1="1220" x2="1130" y2="1245" stroke="black"/>
<line x1="199" y1="1232" x2="66" y2="1232" stroke="black"/>
<line x1="66" y1="1232" x2="76" y2="1238" stroke="black"/>
<text x="91" y="1230" textLength="82" font-family="Helvetica" font-size="10" fill="black">
status(1, Finished)
</text>
<line x1="66" y1="1245" x2="66" y2="1270" stroke="black"/>
<line x1="199" y1="1245" x2="199" y2="1270" stroke="black"/>
<line x1="332" y1="1245" x2="332" y2="1270" stroke="black"/>
<line x1="465" y1="1245" x2="465" y2="1270" stroke="black"/>
<line x1="598" y1="1245" x2="598" y2="1270" stroke="black"/>
<line x1="731" y1="1245" x2="731" y2="1270" stroke="black"/>
<line x1="864" y1="1245" x2="864" y2="1270" stroke="black"/>
<line x1="997" y1="1245" x2="997" y2="1270" stroke="black"/>
<line x1="1130" y1="1245" x2="1130" y2="1270" stroke="black"/>
<line x1="66" y1="1257" x2="199" y2="1257" stroke="black"/>
<line x1="199" y1="1257" x2="189" y2="1263" stroke="black"/>
<text x="103" y="1255" textLength="59" font-family="Helvetica" font-size="10" fill="black">
getResults(1)
</text>
<line x1="66" y1="1270" x2="66" y2="1295" stroke="black"/>
<line x1="199" y1="1270" x2="199" y2="1295" stroke="black"/>
<line x1="332" y1="1270" x2="332" y2="1295" stroke="black"/>
<line x1="465" y1="1270" x2="465" y2="1295" stroke="black"/>
<line x1="598" y1="1270" x2="598" y2="1295" stroke="black"/>
<line x1="731" y1="1270" x2="731" y2="1295" stroke="black"/>
<line x1="864" y1="1270" x2="864" y2="1295" stroke="black"/>
<line x1="997" y1="1270" x2="997" y2="1295" stroke="black"/>
<line x1="1130" y1="1270" x2="1130" y2="1295" stroke="black"/>
<line x1="199" y1="1282" x2="66" y2="1282" stroke="black"/>
<line x1="66" y1="1282" x2="76" y2="1288" stroke="black"/>
<text x="92" y="1280" textLength="80" font-family="Helvetica" font-size="10" fill="black">
results(1, [Token])
</text>
</svg>
