<!DOCTYPE svg PUBLIC "-//W3C//DTD SVG 1.1//EN"
 "http://www.w3.org/Graphics/SVG/1.1/DTD/svg11.dtd">
<svg width="100%" height="100%" version="1.1"
 xmlns="http://www.w3.org/2000/svg" shape-rendering="crispEdges"
 stroke-width="1" text-rendering="geometricPrecision">
<text x="75" y="14" textLength="21" font-family="Helvetica" font-size="10" fill="black" text-anchor="middle">
Orch
</text>
<text x="225" y="14" textLength="28" font-family="Helvetica" font-size="10" fill="black" text-anchor="middle">
Sched
</text>
<text x="375" y="14" textLength="17" font-family="Helvetica" font-size="10" fill="black" text-anchor="middle">
Agg
</text>
<text x="525" y="14" textLength="31" font-family="Helvetica" font-size="10" fill="black" text-anchor="middle">
devnull
</text>
<line x1="75" y1="20" x2="75" y2="45" stroke="black"/>
<line x1="225" y1="20" x2="225" y2="45" stroke="black"/>
<line x1="375" y1="20" x2="375" y2="45" stroke="black"/>
<line x1="525" y1="20" x2="525" y2="45" stroke="black"/>
<line x1="75" y1="69" x2="75" y2="70" stroke="black"/>
<line x1="225" y1="69" x2="225" y2="70" stroke="black"/>
<line x1="375" y1="69" x2="375" y2="70" stroke="black"/>
<line x1="525" y1="45" x2="525" y2="70" stroke="black"/>
<line x1="8" y1="45" x2="442" y2="45" stroke="black"/>
<line x1="8" y1="69" x2="442" y2="69" stroke="black"/>
<line x1="8" y1="45" x2="8" y2="69" stroke="black"/>
<line x1="442" y1="45" x2="442" y2="69" stroke="black"/>
<text x="130" y="59" textLength="188" font-family="Helvetica" font-size="10" fill="black">
request for a new job (submitAck gets lost)
</text>
<line x1="75" y1="70" x2="75" y2="95" stroke="black"/>
<line x1="225" y1="70" x2="225" y2="95" stroke="black"/>
<line x1="375" y1="70" x2="375" y2="95" stroke="black"/>
<line x1="525" y1="70" x2="525" y2="95" stroke="black"/>
<line x1="75" y1="95" x2="75" y2="120" stroke="black"/>
<line x1="225" y1="95" x2="225" y2="120" stroke="black"/>
<line x1="375" y1="95" x2="375" y2="120" stroke="black"/>
<line x1="525" y1="95" x2="525" y2="120" stroke="black"/>
<line x1="375" y1="107" x2="75" y2="107" stroke="black"/>
<line x1="75" y1="107" x2="85" y2="113" stroke="black"/>
<text x="164" y="105" textLength="120" font-family="Helvetica" font-size="10" fill="black">
requestJob(last_job_id="-")
</text>
<line x1="75" y1="120" x2="75" y2="145" stroke="black"/>
<line x1="225" y1="120" x2="225" y2="145" stroke="black"/>
<line x1="375" y1="120" x2="375" y2="145" stroke="black"/>
<line x1="525" y1="120" x2="525" y2="145" stroke="black"/>
<line x1="75" y1="132" x2="225" y2="132" stroke="black"/>
<polygon fill="black" points="225,132 215,138 215,126"/>
<text x="57" y="130" textLength="184" font-family="Helvetica" font-size="10" fill="black">
get_next_job(worker_id=Agg, last_job_id)
</text>
<line x1="75" y1="145" x2="75" y2="170" stroke="black"/>
<line x1="225" y1="145" x2="225" y2="170" stroke="black"/>
<line x1="375" y1="145" x2="375" y2="170" stroke="black"/>
<line x1="525" y1="145" x2="525" y2="170" stroke="black"/>
<text x="193" y="159" textLength="212" font-family="Helvetica" font-size="10" fill="black">
the scheduler leaves job-1 in the pending queue
</text>
<line x1="37" y1="157" x2="192" y2="157" stroke="black" stroke-dasharray="2,2"/>
<line x1="408" y1="157" x2="563" y2="157" stroke="black" stroke-dasharray="2,2"/>
<line x1="75" y1="170" x2="75" y2="195" stroke="black"/>
<line x1="225" y1="170" x2="225" y2="195" stroke="black"/>
<line x1="375" y1="170" x2="375" y2="195" stroke="black"/>
<line x1="525" y1="170" x2="525" y2="195" stroke="black"/>
<line x1="225" y1="182" x2="75" y2="182" stroke="black" stroke-dasharray="2,2"/>
<polygon fill="black" points="75,182 85,188 85,176"/>
<text x="135" y="180" textLength="28" font-family="Helvetica" font-size="10" fill="black">
Job(1)
</text>
<line x1="75" y1="195" x2="75" y2="220" stroke="black"/>
<line x1="225" y1="195" x2="225" y2="220" stroke="black"/>
<line x1="375" y1="195" x2="375" y2="220" stroke="black"/>
<line x1="525" y1="195" x2="525" y2="220" stroke="black"/>
<line x1="75" y1="207" x2="375" y2="207" stroke="black"/>
<line x1="375" y1="207" x2="365" y2="213" stroke="black"/>
<text x="179" y="205" textLength="90" font-family="Helvetica" font-size="10" fill="black">
submitJob(job_id=1)
</text>
<line x1="75" y1="220" x2="75" y2="245" stroke="black"/>
<line x1="225" y1="220" x2="225" y2="245" stroke="black"/>
<line x1="375" y1="220" x2="375" y2="245" stroke="black"/>
<line x1="525" y1="220" x2="525" y2="245" stroke="black"/>
<line x1="375" y1="232" x2="75" y2="232" stroke="black"/>
<line x1="75" y1="232" x2="85" y2="238" stroke="black"/>
<text x="171" y="230" textLength="106" font-family="Helvetica" font-size="10" fill="black">
submitJobAck(job_id=1)
</text>
<line x1="75" y1="245" x2="75" y2="270" stroke="black"/>
<line x1="225" y1="245" x2="225" y2="270" stroke="black"/>
<line x1="375" y1="245" x2="375" y2="270" stroke="black"/>
<line x1="525" y1="245" x2="525" y2="270" stroke="black"/>
<text x="140" y="259" textLength="319" font-family="Helvetica" font-size="10" fill="black">
now it is safe to move the job from the pending into the submitted queue
</text>
<line x1="37" y1="257" x2="139" y2="257" stroke="black" stroke-dasharray="2,2"/>
<line x1="462" y1="257" x2="563" y2="257" stroke="black" stroke-dasharray="2,2"/>
<line x1="75" y1="270" x2="75" y2="295" stroke="black"/>
<line x1="225" y1="270" x2="225" y2="295" stroke="black"/>
<line x1="375" y1="270" x2="375" y2="295" stroke="black"/>
<line x1="525" y1="270" x2="525" y2="295" stroke="black"/>
<line x1="75" y1="282" x2="225" y2="282" stroke="black"/>
<polygon fill="black" points="225,282 215,288 215,276"/>
<text x="62" y="280" textLength="175" font-family="Helvetica" font-size="10" fill="black">
acknowledge(worker_id=Agg, job_id=1)
</text>
<line x1="75" y1="295" x2="75" y2="320" stroke="black" stroke-dasharray="2,2"/>
<line x1="225" y1="295" x2="225" y2="320" stroke="black" stroke-dasharray="2,2"/>
<line x1="375" y1="295" x2="375" y2="320" stroke="black" stroke-dasharray="2,2"/>
<line x1="525" y1="295" x2="525" y2="320" stroke="black" stroke-dasharray="2,2"/>
<line x1="75" y1="320" x2="75" y2="345" stroke="black"/>
<line x1="225" y1="320" x2="225" y2="345" stroke="black"/>
<line x1="375" y1="320" x2="375" y2="345" stroke="black"/>
<line x1="525" y1="320" x2="525" y2="345" stroke="black"/>
<text x="154" y="334" textLength="290" font-family="Helvetica" font-size="10" fill="black">
computation can take place but we may already ask for more jobs
</text>
<line x1="37" y1="332" x2="153" y2="332" stroke="black" stroke-dasharray="2,2"/>
<line x1="447" y1="332" x2="563" y2="332" stroke="black" stroke-dasharray="2,2"/>
<line x1="75" y1="345" x2="75" y2="370" stroke="black" stroke-dasharray="2,2"/>
<line x1="225" y1="345" x2="225" y2="370" stroke="black" stroke-dasharray="2,2"/>
<line x1="375" y1="345" x2="375" y2="370" stroke="black" stroke-dasharray="2,2"/>
<line x1="525" y1="345" x2="525" y2="370" stroke="black" stroke-dasharray="2,2"/>
<line x1="75" y1="370" x2="75" y2="395" stroke="black"/>
<line x1="225" y1="370" x2="225" y2="395" stroke="black"/>
<line x1="375" y1="370" x2="375" y2="395" stroke="black"/>
<line x1="525" y1="370" x2="525" y2="395" stroke="black"/>
<line x1="375" y1="382" x2="75" y2="382" stroke="black"/>
<line x1="75" y1="382" x2="85" y2="388" stroke="black"/>
<text x="163" y="380" textLength="122" font-family="Helvetica" font-size="10" fill="black">
requestJob(last_job_id="1")
</text>
<line x1="75" y1="395" x2="75" y2="420" stroke="black"/>
<line x1="225" y1="395" x2="225" y2="420" stroke="black"/>
<line x1="375" y1="395" x2="375" y2="420" stroke="black"/>
<line x1="525" y1="395" x2="525" y2="420" stroke="black"/>
<line x1="75" y1="407" x2="225" y2="407" stroke="black"/>
<polygon fill="black" points="225,407 215,413 215,401"/>
<text x="48" y="405" textLength="202" font-family="Helvetica" font-size="10" fill="black">
get_next_job(worker_id=Agg, last_job_id="1")
</text>
<line x1="75" y1="420" x2="75" y2="445" stroke="black"/>
<line x1="225" y1="420" x2="225" y2="445" stroke="black"/>
<line x1="375" y1="420" x2="375" y2="445" stroke="black"/>
<line x1="525" y1="420" x2="525" y2="445" stroke="black"/>
<text x="193" y="434" textLength="212" font-family="Helvetica" font-size="10" fill="black">
the scheduler leaves job-2 in the pending queue
</text>
<line x1="37" y1="432" x2="192" y2="432" stroke="black" stroke-dasharray="2,2"/>
<line x1="408" y1="432" x2="563" y2="432" stroke="black" stroke-dasharray="2,2"/>
<line x1="75" y1="445" x2="75" y2="470" stroke="black"/>
<line x1="225" y1="445" x2="225" y2="470" stroke="black"/>
<line x1="375" y1="445" x2="375" y2="470" stroke="black"/>
<line x1="525" y1="445" x2="525" y2="470" stroke="black"/>
<line x1="225" y1="457" x2="75" y2="457" stroke="black" stroke-dasharray="2,2"/>
<polygon fill="black" points="75,457 85,463 85,451"/>
<text x="135" y="455" textLength="28" font-family="Helvetica" font-size="10" fill="black">
Job(2)
</text>
<line x1="75" y1="470" x2="75" y2="495" stroke="black"/>
<line x1="225" y1="470" x2="225" y2="495" stroke="black"/>
<line x1="375" y1="470" x2="375" y2="495" stroke="black"/>
<line x1="525" y1="470" x2="525" y2="495" stroke="black"/>
<line x1="75" y1="482" x2="375" y2="482" stroke="black"/>
<line x1="375" y1="482" x2="365" y2="488" stroke="black"/>
<text x="179" y="480" textLength="90" font-family="Helvetica" font-size="10" fill="black">
submitJob(job_id=2)
</text>
<line x1="75" y1="495" x2="75" y2="520" stroke="black"/>
<line x1="225" y1="495" x2="225" y2="520" stroke="black"/>
<line x1="375" y1="495" x2="375" y2="520" stroke="black"/>
<line x1="525" y1="495" x2="525" y2="520" stroke="black"/>
<line x1="375" y1="507" x2="525" y2="507" stroke="black"/>
<line x1="525" y1="507" x2="515" y2="513" stroke="black"/>
<text x="396" y="505" textLength="106" font-family="Helvetica" font-size="10" fill="black">
submitJobAck(job_id=2)
</text>
<line x1="75" y1="520" x2="75" y2="545" stroke="black" stroke-dasharray="2,2"/>
<line x1="225" y1="520" x2="225" y2="545" stroke="black" stroke-dasharray="2,2"/>
<line x1="375" y1="520" x2="375" y2="545" stroke="black" stroke-dasharray="2,2"/>
<line x1="525" y1="520" x2="525" y2="545" stroke="black" stroke-dasharray="2,2"/>
<line x1="75" y1="545" x2="75" y2="570" stroke="black"/>
<line x1="225" y1="545" x2="225" y2="570" stroke="black"/>
<line x1="375" y1="545" x2="375" y2="570" stroke="black"/>
<line x1="525" y1="545" x2="525" y2="570" stroke="black"/>
<text x="79" y="559" textLength="441" font-family="Helvetica" font-size="10" fill="black">
the aggregator has already enough jobs, so we don't send more requests, but we still send lifeSigns
</text>
<line x1="37" y1="557" x2="78" y2="557" stroke="black" stroke-dasharray="2,2"/>
<line x1="523" y1="557" x2="563" y2="557" stroke="black" stroke-dasharray="2,2"/>
<line x1="75" y1="570" x2="75" y2="595" stroke="black" stroke-dasharray="2,2"/>
<line x1="225" y1="570" x2="225" y2="595" stroke="black" stroke-dasharray="2,2"/>
<line x1="375" y1="570" x2="375" y2="595" stroke="black" stroke-dasharray="2,2"/>
<line x1="525" y1="570" x2="525" y2="595" stroke="black" stroke-dasharray="2,2"/>
<line x1="75" y1="595" x2="75" y2="620" stroke="black"/>
<line x1="225" y1="595" x2="225" y2="620" stroke="black"/>
<line x1="375" y1="595" x2="375" y2="620" stroke="black"/>
<line x1="525" y1="595" x2="525" y2="620" stroke="black"/>
<line x1="375" y1="607" x2="75" y2="607" stroke="black"/>
<line x1="75" y1="607" x2="85" y2="613" stroke="black"/>
<text x="172" y="605" textLength="105" font-family="Helvetica" font-size="10" fill="black">
lifeSign(last_job_id="2")
</text>
<line x1="75" y1="620" x2="75" y2="645" stroke="black"/>
<line x1="225" y1="620" x2="225" y2="645" stroke="black"/>
<line x1="375" y1="620" x2="375" y2="645" stroke="black"/>
<line x1="525" y1="620" x2="525" y2="645" stroke="black"/>
<text x="140" y="634" textLength="319" font-family="Helvetica" font-size="10" fill="black">
now it is safe to move the job from the pending into the submitted queue
</text>
<line x1="37" y1="632" x2="139" y2="632" stroke="black" stroke-dasharray="2,2"/>
<line x1="462" y1="632" x2="563" y2="632" stroke="black" stroke-dasharray="2,2"/>
<line x1="75" y1="645" x2="75" y2="670" stroke="black"/>
<line x1="225" y1="645" x2="225" y2="670" stroke="black"/>
<line x1="375" y1="645" x2="375" y2="670" stroke="black"/>
<line x1="525" y1="645" x2="525" y2="670" stroke="black"/>
<line x1="75" y1="657" x2="225" y2="657" stroke="black"/>
<polygon fill="black" points="225,657 215,663 215,651"/>
<text x="62" y="655" textLength="175" font-family="Helvetica" font-size="10" fill="black">
acknowledge(worker_id=Agg, job_id=2)
</text>
</svg>
