<!DOCTYPE svg PUBLIC "-//W3C//DTD SVG 1.1//EN"
 "http://www.w3.org/Graphics/SVG/1.1/DTD/svg11.dtd">
<svg width="100%" height="100%" version="1.1"
 xmlns="http://www.w3.org/2000/svg" shape-rendering="crispEdges"
 stroke-width="1" text-rendering="geometricPrecision">
<text x="75" y="14" textLength="21" font-family="Helvetica" font-size="10" fill="black" text-anchor="middle">
Orch
</text>
<text x="225" y="14" textLength="28" font-family="Helvetica" font-size="10" fill="black" text-anchor="middle">
Sched
</text>
<text x="375" y="14" textLength="17" font-family="Helvetica" font-size="10" fill="black" text-anchor="middle">
Agg
</text>
<text x="525" y="14" textLength="31" font-family="Helvetica" font-size="10" fill="black" text-anchor="middle">
devnull
</text>
<line x1="75" y1="20" x2="75" y2="45" stroke="black"/>
<line x1="225" y1="20" x2="225" y2="45" stroke="black"/>
<line x1="375" y1="20" x2="375" y2="45" stroke="black"/>
<line x1="525" y1="20" x2="525" y2="45" stroke="black"/>
<line x1="75" y1="69" x2="75" y2="70" stroke="black"/>
<line x1="225" y1="69" x2="225" y2="70" stroke="black"/>
<line x1="375" y1="69" x2="375" y2="70" stroke="black"/>
<line x1="525" y1="45" x2="525" y2="70" stroke="black"/>
<line x1="8" y1="45" x2="442" y2="45" stroke="black"/>
<line x1="8" y1="69" x2="442" y2="69" stroke="black"/>
<line x1="8" y1="45" x2="8" y2="69" stroke="black"/>
<line x1="442" y1="45" x2="442" y2="69" stroke="black"/>
<text x="138" y="59" textLength="172" font-family="Helvetica" font-size="10" fill="black">
request for a new job (submit gets lost)
</text>
<line x1="75" y1="70" x2="75" y2="95" stroke="black"/>
<line x1="225" y1="70" x2="225" y2="95" stroke="black"/>
<line x1="375" y1="70" x2="375" y2="95" stroke="black"/>
<line x1="525" y1="70" x2="525" y2="95" stroke="black"/>
<line x1="75" y1="95" x2="75" y2="120" stroke="black"/>
<line x1="225" y1="95" x2="225" y2="120" stroke="black"/>
<line x1="375" y1="95" x2="375" y2="120" stroke="black"/>
<line x1="525" y1="95" x2="525" y2="120" stroke="black"/>
<text x="270" y="109" textLength="58" font-family="Helvetica" font-size="10" fill="black">
initial request
</text>
<line x1="37" y1="107" x2="269" y2="107" stroke="black" stroke-dasharray="2,2"/>
<line x1="331" y1="107" x2="563" y2="107" stroke="black" stroke-dasharray="2,2"/>
<line x1="75" y1="120" x2="75" y2="145" stroke="black"/>
<line x1="225" y1="120" x2="225" y2="145" stroke="black"/>
<line x1="375" y1="120" x2="375" y2="145" stroke="black"/>
<line x1="525" y1="120" x2="525" y2="145" stroke="black"/>
<line x1="375" y1="132" x2="75" y2="132" stroke="black"/>
<line x1="75" y1="132" x2="85" y2="138" stroke="black"/>
<text x="164" y="130" textLength="120" font-family="Helvetica" font-size="10" fill="black">
requestJob(last_job_id="-")
</text>
<line x1="75" y1="145" x2="75" y2="170" stroke="black"/>
<line x1="225" y1="145" x2="225" y2="170" stroke="black"/>
<line x1="375" y1="145" x2="375" y2="170" stroke="black"/>
<line x1="525" y1="145" x2="525" y2="170" stroke="black"/>
<line x1="75" y1="157" x2="225" y2="157" stroke="black"/>
<polygon fill="black" points="225,157 215,163 215,151"/>
<text x="57" y="155" textLength="184" font-family="Helvetica" font-size="10" fill="black">
get_next_job(worker_id=Agg, last_job_id)
</text>
<line x1="75" y1="170" x2="75" y2="195" stroke="black"/>
<line x1="225" y1="170" x2="225" y2="195" stroke="black"/>
<line x1="375" y1="170" x2="375" y2="195" stroke="black"/>
<line x1="525" y1="170" x2="525" y2="195" stroke="black"/>
<text x="189" y="184" textLength="220" font-family="Helvetica" font-size="10" fill="black">
the scheduler leaves the job in the pending queue
</text>
<line x1="37" y1="182" x2="188" y2="182" stroke="black" stroke-dasharray="2,2"/>
<line x1="412" y1="182" x2="563" y2="182" stroke="black" stroke-dasharray="2,2"/>
<line x1="75" y1="195" x2="75" y2="220" stroke="black"/>
<line x1="225" y1="195" x2="225" y2="220" stroke="black"/>
<line x1="375" y1="195" x2="375" y2="220" stroke="black"/>
<line x1="525" y1="195" x2="525" y2="220" stroke="black"/>
<line x1="225" y1="207" x2="75" y2="207" stroke="black" stroke-dasharray="2,2"/>
<polygon fill="black" points="75,207 85,213 85,201"/>
<text x="135" y="205" textLength="28" font-family="Helvetica" font-size="10" fill="black">
Job(1)
</text>
<line x1="75" y1="220" x2="75" y2="245" stroke="black"/>
<line x1="225" y1="220" x2="225" y2="245" stroke="black"/>
<line x1="375" y1="220" x2="375" y2="245" stroke="black"/>
<line x1="525" y1="220" x2="525" y2="245" stroke="black"/>
<text x="227" y="234" textLength="145" font-family="Helvetica" font-size="10" fill="black">
the submitJob message gets lost
</text>
<line x1="37" y1="232" x2="226" y2="232" stroke="black" stroke-dasharray="2,2"/>
<line x1="375" y1="232" x2="563" y2="232" stroke="black" stroke-dasharray="2,2"/>
<line x1="75" y1="245" x2="75" y2="270" stroke="black"/>
<line x1="225" y1="245" x2="225" y2="270" stroke="black"/>
<line x1="375" y1="245" x2="375" y2="270" stroke="black"/>
<line x1="525" y1="245" x2="525" y2="270" stroke="black"/>
<line x1="75" y1="257" x2="525" y2="257" stroke="black"/>
<line x1="525" y1="257" x2="515" y2="263" stroke="black"/>
<text x="254" y="255" textLength="90" font-family="Helvetica" font-size="10" fill="black">
submitJob(job_id=1)
</text>
<line x1="75" y1="270" x2="75" y2="295" stroke="black" stroke-dasharray="2,2"/>
<line x1="225" y1="270" x2="225" y2="295" stroke="black" stroke-dasharray="2,2"/>
<line x1="375" y1="270" x2="375" y2="295" stroke="black" stroke-dasharray="2,2"/>
<line x1="525" y1="270" x2="525" y2="295" stroke="black" stroke-dasharray="2,2"/>
<line x1="75" y1="295" x2="75" y2="320" stroke="black"/>
<line x1="225" y1="295" x2="225" y2="320" stroke="black"/>
<line x1="375" y1="295" x2="375" y2="320" stroke="black"/>
<line x1="525" y1="295" x2="525" y2="320" stroke="black"/>
<line x1="375" y1="307" x2="75" y2="307" stroke="black"/>
<line x1="75" y1="307" x2="85" y2="313" stroke="black"/>
<text x="164" y="305" textLength="120" font-family="Helvetica" font-size="10" fill="black">
requestJob(last_job_id="-")
</text>
<line x1="75" y1="320" x2="75" y2="345" stroke="black"/>
<line x1="225" y1="320" x2="225" y2="345" stroke="black"/>
<line x1="375" y1="320" x2="375" y2="345" stroke="black"/>
<line x1="525" y1="320" x2="525" y2="345" stroke="black"/>
<line x1="75" y1="332" x2="225" y2="332" stroke="black"/>
<polygon fill="black" points="225,332 215,338 215,326"/>
<text x="57" y="330" textLength="184" font-family="Helvetica" font-size="10" fill="black">
get_next_job(worker_id=Agg, last_job_id)
</text>
<line x1="75" y1="345" x2="75" y2="370" stroke="black"/>
<line x1="225" y1="345" x2="225" y2="370" stroke="black"/>
<line x1="375" y1="345" x2="375" y2="370" stroke="black"/>
<line x1="525" y1="345" x2="525" y2="370" stroke="black"/>
<text x="197" y="359" textLength="204" font-family="Helvetica" font-size="10" fill="black">
the job is still at the front of the pending queue
</text>
<line x1="37" y1="357" x2="196" y2="357" stroke="black" stroke-dasharray="2,2"/>
<line x1="404" y1="357" x2="563" y2="357" stroke="black" stroke-dasharray="2,2"/>
<line x1="75" y1="370" x2="75" y2="395" stroke="black"/>
<line x1="225" y1="370" x2="225" y2="395" stroke="black"/>
<line x1="375" y1="370" x2="375" y2="395" stroke="black"/>
<line x1="525" y1="370" x2="525" y2="395" stroke="black"/>
<line x1="225" y1="382" x2="75" y2="382" stroke="black" stroke-dasharray="2,2"/>
<polygon fill="black" points="75,382 85,388 85,376"/>
<text x="135" y="380" textLength="28" font-family="Helvetica" font-size="10" fill="black">
Job(1)
</text>
<line x1="75" y1="395" x2="75" y2="420" stroke="black"/>
<line x1="225" y1="395" x2="225" y2="420" stroke="black"/>
<line x1="375" y1="395" x2="375" y2="420" stroke="black"/>
<line x1="525" y1="395" x2="525" y2="420" stroke="black"/>
<line x1="75" y1="407" x2="375" y2="407" stroke="black"/>
<line x1="375" y1="407" x2="365" y2="413" stroke="black"/>
<text x="179" y="405" textLength="90" font-family="Helvetica" font-size="10" fill="black">
submitJob(job_id=1)
</text>
<line x1="75" y1="420" x2="75" y2="445" stroke="black"/>
<line x1="225" y1="420" x2="225" y2="445" stroke="black"/>
<line x1="375" y1="420" x2="375" y2="445" stroke="black"/>
<line x1="525" y1="420" x2="525" y2="445" stroke="black"/>
<line x1="375" y1="432" x2="75" y2="432" stroke="black"/>
<line x1="75" y1="432" x2="85" y2="438" stroke="black"/>
<text x="171" y="430" textLength="106" font-family="Helvetica" font-size="10" fill="black">
submitJobAck(job_id=1)
</text>
<line x1="75" y1="445" x2="75" y2="470" stroke="black"/>
<line x1="225" y1="445" x2="225" y2="470" stroke="black"/>
<line x1="375" y1="445" x2="375" y2="470" stroke="black"/>
<line x1="525" y1="445" x2="525" y2="470" stroke="black"/>
<text x="140" y="459" textLength="319" font-family="Helvetica" font-size="10" fill="black">
now it is safe to move the job from the pending into the submitted queue
</text>
<line x1="37" y1="457" x2="139" y2="457" stroke="black" stroke-dasharray="2,2"/>
<line x1="462" y1="457" x2="563" y2="457" stroke="black" stroke-dasharray="2,2"/>
<line x1="75" y1="470" x2="75" y2="495" stroke="black"/>
<line x1="225" y1="470" x2="225" y2="495" stroke="black"/>
<line x1="375" y1="470" x2="375" y2="495" stroke="black"/>
<line x1="525" y1="470" x2="525" y2="495" stroke="black"/>
<line x1="75" y1="482" x2="225" y2="482" stroke="black"/>
<polygon fill="black" points="225,482 215,488 215,476"/>
<text x="62" y="480" textLength="175" font-family="Helvetica" font-size="10" fill="black">
acknowledge(worker_id=Agg, job_id=1)
</text>
</svg>
