<!DOCTYPE svg PUBLIC "-//W3C//DTD SVG 1.1//EN"
 "http://www.w3.org/Graphics/SVG/1.1/DTD/svg11.dtd">
<svg width="100%" height="100%" version="1.1"
 xmlns="http://www.w3.org/2000/svg" shape-rendering="crispEdges"
 stroke-width="1" text-rendering="geometricPrecision">
<text x="42" y="14" textLength="7" font-family="Helvetica" font-size="10" fill="black" text-anchor="middle">
U
</text>
<text x="127" y="14" textLength="7" font-family="Helvetica" font-size="10" fill="black" text-anchor="middle">
O
</text>
<text x="212" y="14" textLength="13" font-family="Helvetica" font-size="10" fill="black" text-anchor="middle">
Go
</text>
<text x="297" y="14" textLength="6" font-family="Helvetica" font-size="10" fill="black" text-anchor="middle">
A
</text>
<text x="382" y="14" textLength="13" font-family="Helvetica" font-size="10" fill="black" text-anchor="middle">
Ga
</text>
<text x="467" y="14" textLength="7" font-family="Helvetica" font-size="10" fill="black" text-anchor="middle">
N
</text>
<text x="552" y="14" textLength="13" font-family="Helvetica" font-size="10" fill="black" text-anchor="middle">
Gn
</text>
<line x1="42" y1="20" x2="42" y2="45" stroke="black"/>
<line x1="127" y1="20" x2="127" y2="45" stroke="black"/>
<line x1="212" y1="20" x2="212" y2="45" stroke="black"/>
<line x1="297" y1="20" x2="297" y2="45" stroke="black"/>
<line x1="382" y1="20" x2="382" y2="45" stroke="black"/>
<line x1="467" y1="20" x2="467" y2="45" stroke="black"/>
<line x1="552" y1="20" x2="552" y2="45" stroke="black"/>
<line x1="42" y1="45" x2="42" y2="70" stroke="black"/>
<line x1="127" y1="45" x2="127" y2="70" stroke="black"/>
<line x1="212" y1="45" x2="212" y2="70" stroke="black"/>
<line x1="297" y1="45" x2="297" y2="70" stroke="black"/>
<line x1="382" y1="45" x2="382" y2="70" stroke="black"/>
<line x1="467" y1="45" x2="467" y2="70" stroke="black"/>
<line x1="552" y1="45" x2="552" y2="70" stroke="black"/>
<line x1="42" y1="57" x2="127" y2="57" stroke="black"/>
<line x1="127" y1="57" x2="117" y2="63" stroke="black"/>
<text x="34" y="55" textLength="100" font-family="Helvetica" font-size="10" fill="black">
submitJob(description)
</text>
<line x1="42" y1="70" x2="42" y2="95" stroke="black"/>
<line x1="127" y1="70" x2="127" y2="95" stroke="black"/>
<line x1="212" y1="70" x2="212" y2="95" stroke="black"/>
<line x1="297" y1="70" x2="297" y2="95" stroke="black"/>
<line x1="382" y1="70" x2="382" y2="95" stroke="black"/>
<line x1="467" y1="70" x2="467" y2="95" stroke="black"/>
<line x1="552" y1="70" x2="552" y2="95" stroke="black"/>
<line x1="127" y1="82" x2="212" y2="82" stroke="black"/>
<polygon fill="black" points="212,82 202,88 202,76"/>
<text x="63" y="80" textLength="213" font-family="Helvetica" font-size="10" fill="black">
Workflow wf(gwes::parse_workflow(description))
</text>
<line x1="42" y1="95" x2="42" y2="120" stroke="black"/>
<line x1="127" y1="95" x2="127" y2="120" stroke="black"/>
<line x1="212" y1="95" x2="212" y2="120" stroke="black"/>
<line x1="297" y1="95" x2="297" y2="120" stroke="black"/>
<line x1="382" y1="95" x2="382" y2="120" stroke="black"/>
<line x1="467" y1="95" x2="467" y2="120" stroke="black"/>
<line x1="552" y1="95" x2="552" y2="120" stroke="black"/>
<text x="219" y="109" textLength="155" font-family="Helvetica" font-size="10" fill="black">
if the syntax is ok, schedule the job
</text>
<line x1="21" y1="107" x2="218" y2="107" stroke="black" stroke-dasharray="2,2"/>
<line x1="377" y1="107" x2="574" y2="107" stroke="black" stroke-dasharray="2,2"/>
<line x1="42" y1="120" x2="42" y2="145" stroke="black"/>
<line x1="127" y1="120" x2="127" y2="145" stroke="black"/>
<line x1="212" y1="120" x2="212" y2="145" stroke="black"/>
<line x1="297" y1="120" x2="297" y2="145" stroke="black"/>
<line x1="382" y1="120" x2="382" y2="145" stroke="black"/>
<line x1="467" y1="120" x2="467" y2="145" stroke="black"/>
<line x1="552" y1="120" x2="552" y2="145" stroke="black"/>
<line x1="127" y1="132" x2="212" y2="132" stroke="black"/>
<polygon fill="black" points="212,132 202,138 202,126"/>
<text x="126" y="130" textLength="87" font-family="Helvetica" font-size="10" fill="black">
submitWorkflow(wf)
</text>
<line x1="42" y1="145" x2="42" y2="170" stroke="black"/>
<line x1="127" y1="145" x2="127" y2="170" stroke="black"/>
<line x1="212" y1="145" x2="212" y2="170" stroke="black"/>
<line x1="297" y1="145" x2="297" y2="170" stroke="black"/>
<line x1="382" y1="145" x2="382" y2="170" stroke="black"/>
<line x1="467" y1="145" x2="467" y2="170" stroke="black"/>
<line x1="552" y1="145" x2="552" y2="170" stroke="black"/>
<line x1="212" y1="157" x2="127" y2="157" stroke="black"/>
<polygon fill="black" points="127,157 137,163 137,151"/>
<text x="129" y="155" textLength="81" font-family="Helvetica" font-size="10" fill="black">
submitActivity(act)
</text>
<line x1="42" y1="170" x2="42" y2="195" stroke="black"/>
<line x1="127" y1="170" x2="127" y2="195" stroke="black"/>
<line x1="212" y1="170" x2="212" y2="195" stroke="black"/>
<line x1="297" y1="170" x2="297" y2="195" stroke="black"/>
<line x1="382" y1="170" x2="382" y2="195" stroke="black"/>
<line x1="467" y1="170" x2="467" y2="195" stroke="black"/>
<line x1="552" y1="170" x2="552" y2="195" stroke="black"/>
<path d="M 126 187 A42,6 0 0,1 127,176" stroke="black" fill="none"/><polygon fill="black" points="127,188 117,194 117,182"/>
<text x="128" y="180" textLength="108" font-family="Helvetica" font-size="10" fill="black">
false = handle_local(act)
</text>
<line x1="42" y1="195" x2="42" y2="220" stroke="black"/>
<line x1="127" y1="195" x2="127" y2="220" stroke="black"/>
<line x1="212" y1="195" x2="212" y2="220" stroke="black"/>
<line x1="297" y1="195" x2="297" y2="220" stroke="black"/>
<line x1="382" y1="195" x2="382" y2="220" stroke="black"/>
<line x1="467" y1="195" x2="467" y2="220" stroke="black"/>
<line x1="552" y1="195" x2="552" y2="220" stroke="black"/>
<line x1="127" y1="207" x2="212" y2="207" stroke="black"/>
<polygon fill="black" points="212,207 202,213 202,201"/>
<text x="42" y="205" textLength="255" font-family="Helvetica" font-size="10" fill="black">
Workflow swf = gwes::transform_activity_to_workflow(act)
</text>
<line x1="42" y1="220" x2="42" y2="245" stroke="black"/>
<line x1="127" y1="220" x2="127" y2="245" stroke="black"/>
<line x1="212" y1="220" x2="212" y2="245" stroke="black"/>
<line x1="297" y1="220" x2="297" y2="245" stroke="black"/>
<line x1="382" y1="220" x2="382" y2="245" stroke="black"/>
<line x1="467" y1="220" x2="467" y2="245" stroke="black"/>
<line x1="552" y1="220" x2="552" y2="245" stroke="black"/>
<line x1="127" y1="232" x2="212" y2="232" stroke="black"/>
<polygon fill="black" points="212,232 202,238 202,226"/>
<text x="83" y="230" textLength="172" font-family="Helvetica" font-size="10" fill="black">
Description desc = gwes::serialize(swf)
</text>
<line x1="42" y1="245" x2="42" y2="270" stroke="black"/>
<line x1="127" y1="245" x2="127" y2="270" stroke="black"/>
<line x1="212" y1="245" x2="212" y2="270" stroke="black"/>
<line x1="297" y1="245" x2="297" y2="270" stroke="black"/>
<line x1="382" y1="245" x2="382" y2="270" stroke="black"/>
<line x1="467" y1="245" x2="467" y2="270" stroke="black"/>
<line x1="552" y1="245" x2="552" y2="270" stroke="black"/>
<line x1="127" y1="257" x2="297" y2="257" stroke="black"/>
<line x1="297" y1="257" x2="287" y2="263" stroke="black"/>
<text x="175" y="255" textLength="73" font-family="Helvetica" font-size="10" fill="black">
submitJob(desc)
</text>
<line x1="42" y1="270" x2="42" y2="295" stroke="black" stroke-dasharray="2,2"/>
<line x1="127" y1="270" x2="127" y2="295" stroke="black" stroke-dasharray="2,2"/>
<line x1="212" y1="270" x2="212" y2="295" stroke="black" stroke-dasharray="2,2"/>
<line x1="297" y1="270" x2="297" y2="295" stroke="black" stroke-dasharray="2,2"/>
<line x1="382" y1="270" x2="382" y2="295" stroke="black" stroke-dasharray="2,2"/>
<line x1="467" y1="270" x2="467" y2="295" stroke="black" stroke-dasharray="2,2"/>
<line x1="552" y1="270" x2="552" y2="295" stroke="black" stroke-dasharray="2,2"/>
<line x1="42" y1="295" x2="42" y2="320" stroke="black"/>
<line x1="127" y1="295" x2="127" y2="320" stroke="black"/>
<line x1="212" y1="295" x2="212" y2="320" stroke="black"/>
<line x1="297" y1="295" x2="297" y2="320" stroke="black"/>
<line x1="382" y1="295" x2="382" y2="320" stroke="black"/>
<line x1="467" y1="295" x2="467" y2="320" stroke="black"/>
<line x1="552" y1="295" x2="552" y2="320" stroke="black"/>
<line x1="297" y1="307" x2="382" y2="307" stroke="black"/>
<polygon fill="black" points="382,307 372,313 372,301"/>
<text x="244" y="305" textLength="191" font-family="Helvetica" font-size="10" fill="black">
Workflow wf = gwes::parse_workflow(desc)
</text>
<line x1="42" y1="320" x2="42" y2="345" stroke="black"/>
<line x1="127" y1="320" x2="127" y2="345" stroke="black"/>
<line x1="212" y1="320" x2="212" y2="345" stroke="black"/>
<line x1="297" y1="320" x2="297" y2="345" stroke="black"/>
<line x1="382" y1="320" x2="382" y2="345" stroke="black"/>
<line x1="467" y1="320" x2="467" y2="345" stroke="black"/>
<line x1="552" y1="320" x2="552" y2="345" stroke="black"/>
<text x="219" y="334" textLength="155" font-family="Helvetica" font-size="10" fill="black">
the syntax must be ok on this level!
</text>
<line x1="21" y1="332" x2="218" y2="332" stroke="black" stroke-dasharray="2,2"/>
<line x1="377" y1="332" x2="574" y2="332" stroke="black" stroke-dasharray="2,2"/>
<line x1="42" y1="345" x2="42" y2="370" stroke="black"/>
<line x1="127" y1="345" x2="127" y2="370" stroke="black"/>
<line x1="212" y1="345" x2="212" y2="370" stroke="black"/>
<line x1="297" y1="345" x2="297" y2="370" stroke="black"/>
<line x1="382" y1="345" x2="382" y2="370" stroke="black"/>
<line x1="467" y1="345" x2="467" y2="370" stroke="black"/>
<line x1="552" y1="345" x2="552" y2="370" stroke="black"/>
<line x1="297" y1="357" x2="382" y2="357" stroke="black"/>
<polygon fill="black" points="382,357 372,363 372,351"/>
<text x="296" y="355" textLength="87" font-family="Helvetica" font-size="10" fill="black">
submitWorkflow(wf)
</text>
<line x1="42" y1="370" x2="42" y2="395" stroke="black"/>
<line x1="127" y1="370" x2="127" y2="395" stroke="black"/>
<line x1="212" y1="370" x2="212" y2="395" stroke="black"/>
<line x1="297" y1="370" x2="297" y2="395" stroke="black"/>
<line x1="382" y1="370" x2="382" y2="395" stroke="black"/>
<line x1="467" y1="370" x2="467" y2="395" stroke="black"/>
<line x1="552" y1="370" x2="552" y2="395" stroke="black"/>
<line x1="382" y1="382" x2="297" y2="382" stroke="black"/>
<polygon fill="black" points="297,382 307,388 307,376"/>
<text x="299" y="380" textLength="81" font-family="Helvetica" font-size="10" fill="black">
submitActivity(act)
</text>
<line x1="42" y1="395" x2="42" y2="420" stroke="black"/>
<line x1="127" y1="395" x2="127" y2="420" stroke="black"/>
<line x1="212" y1="395" x2="212" y2="420" stroke="black"/>
<line x1="297" y1="395" x2="297" y2="420" stroke="black"/>
<line x1="382" y1="395" x2="382" y2="420" stroke="black"/>
<line x1="467" y1="395" x2="467" y2="420" stroke="black"/>
<line x1="552" y1="395" x2="552" y2="420" stroke="black"/>
<path d="M 297 401 A42,6 0 0,1 296,412" stroke="black" fill="none"/><polygon fill="black" points="297,413 307,419 307,407"/>
<text x="186" y="405" textLength="108" font-family="Helvetica" font-size="10" fill="black">
false = handle_local(act)
</text>
<line x1="42" y1="420" x2="42" y2="445" stroke="black"/>
<line x1="127" y1="420" x2="127" y2="445" stroke="black"/>
<line x1="212" y1="420" x2="212" y2="445" stroke="black"/>
<line x1="297" y1="420" x2="297" y2="445" stroke="black"/>
<line x1="382" y1="420" x2="382" y2="445" stroke="black"/>
<line x1="467" y1="420" x2="467" y2="445" stroke="black"/>
<line x1="552" y1="420" x2="552" y2="445" stroke="black"/>
<line x1="297" y1="432" x2="382" y2="432" stroke="black"/>
<polygon fill="black" points="382,432 372,438 372,426"/>
<text x="212" y="430" textLength="255" font-family="Helvetica" font-size="10" fill="black">
Workflow swf = gwes::transform_activity_to_workflow(act)
</text>
<line x1="42" y1="445" x2="42" y2="470" stroke="black"/>
<line x1="127" y1="445" x2="127" y2="470" stroke="black"/>
<line x1="212" y1="445" x2="212" y2="470" stroke="black"/>
<line x1="297" y1="445" x2="297" y2="470" stroke="black"/>
<line x1="382" y1="445" x2="382" y2="470" stroke="black"/>
<line x1="467" y1="445" x2="467" y2="470" stroke="black"/>
<line x1="552" y1="445" x2="552" y2="470" stroke="black"/>
<line x1="297" y1="457" x2="382" y2="457" stroke="black"/>
<polygon fill="black" points="382,457 372,463 372,451"/>
<text x="253" y="455" textLength="172" font-family="Helvetica" font-size="10" fill="black">
Description desc = gwes::serialize(swf)
</text>
<line x1="42" y1="470" x2="42" y2="495" stroke="black"/>
<line x1="127" y1="470" x2="127" y2="495" stroke="black"/>
<line x1="212" y1="470" x2="212" y2="495" stroke="black"/>
<line x1="297" y1="470" x2="297" y2="495" stroke="black"/>
<line x1="382" y1="470" x2="382" y2="495" stroke="black"/>
<line x1="467" y1="470" x2="467" y2="495" stroke="black"/>
<line x1="552" y1="470" x2="552" y2="495" stroke="black"/>
<line x1="297" y1="482" x2="467" y2="482" stroke="black"/>
<line x1="467" y1="482" x2="457" y2="488" stroke="black"/>
<text x="345" y="480" textLength="73" font-family="Helvetica" font-size="10" fill="black">
submitJob(desc)
</text>
<line x1="42" y1="495" x2="42" y2="520" stroke="black" stroke-dasharray="2,2"/>
<line x1="127" y1="495" x2="127" y2="520" stroke="black" stroke-dasharray="2,2"/>
<line x1="212" y1="495" x2="212" y2="520" stroke="black" stroke-dasharray="2,2"/>
<line x1="297" y1="495" x2="297" y2="520" stroke="black" stroke-dasharray="2,2"/>
<line x1="382" y1="495" x2="382" y2="520" stroke="black" stroke-dasharray="2,2"/>
<line x1="467" y1="495" x2="467" y2="520" stroke="black" stroke-dasharray="2,2"/>
<line x1="552" y1="495" x2="552" y2="520" stroke="black" stroke-dasharray="2,2"/>
<line x1="42" y1="520" x2="42" y2="545" stroke="black"/>
<line x1="127" y1="520" x2="127" y2="545" stroke="black"/>
<line x1="212" y1="520" x2="212" y2="545" stroke="black"/>
<line x1="297" y1="520" x2="297" y2="545" stroke="black"/>
<line x1="382" y1="520" x2="382" y2="545" stroke="black"/>
<line x1="467" y1="520" x2="467" y2="545" stroke="black"/>
<line x1="552" y1="520" x2="552" y2="545" stroke="black"/>
<line x1="467" y1="532" x2="552" y2="532" stroke="black"/>
<polygon fill="black" points="552,532 542,538 542,526"/>
<text x="403" y="530" textLength="191" font-family="Helvetica" font-size="10" fill="black">
Workflow wf = gwes::parse_workflow(desc)
</text>
<line x1="42" y1="545" x2="42" y2="570" stroke="black"/>
<line x1="127" y1="545" x2="127" y2="570" stroke="black"/>
<line x1="212" y1="545" x2="212" y2="570" stroke="black"/>
<line x1="297" y1="545" x2="297" y2="570" stroke="black"/>
<line x1="382" y1="545" x2="382" y2="570" stroke="black"/>
<line x1="467" y1="545" x2="467" y2="570" stroke="black"/>
<line x1="552" y1="545" x2="552" y2="570" stroke="black"/>
<text x="219" y="559" textLength="155" font-family="Helvetica" font-size="10" fill="black">
the syntax must be ok on this level!
</text>
<line x1="21" y1="557" x2="218" y2="557" stroke="black" stroke-dasharray="2,2"/>
<line x1="377" y1="557" x2="574" y2="557" stroke="black" stroke-dasharray="2,2"/>
<line x1="42" y1="570" x2="42" y2="595" stroke="black"/>
<line x1="127" y1="570" x2="127" y2="595" stroke="black"/>
<line x1="212" y1="570" x2="212" y2="595" stroke="black"/>
<line x1="297" y1="570" x2="297" y2="595" stroke="black"/>
<line x1="382" y1="570" x2="382" y2="595" stroke="black"/>
<line x1="467" y1="570" x2="467" y2="595" stroke="black"/>
<line x1="552" y1="570" x2="552" y2="595" stroke="black"/>
<path d="M 467 576 A42,6 0 0,1 466,587" stroke="black" fill="none"/><polygon fill="black" points="467,588 477,594 477,582"/>
<text x="315" y="580" textLength="149" font-family="Helvetica" font-size="10" fill="black">
atomic = measure_complexity(wf)
</text>
<line x1="42" y1="595" x2="42" y2="620" stroke="black"/>
<line x1="127" y1="595" x2="127" y2="620" stroke="black"/>
<line x1="212" y1="595" x2="212" y2="620" stroke="black"/>
<line x1="297" y1="595" x2="297" y2="620" stroke="black"/>
<line x1="382" y1="595" x2="382" y2="620" stroke="black"/>
<line x1="467" y1="595" x2="467" y2="620" stroke="black"/>
<line x1="552" y1="595" x2="552" y2="620" stroke="black"/>
<path d="M 467 601 A42,6 0 0,1 466,612" stroke="black" fill="none"/><polygon fill="black" points="467,613 477,619 477,607"/>
<text x="413" y="605" textLength="51" font-family="Helvetica" font-size="10" fill="black">
execute(wf)
</text>
<line x1="42" y1="620" x2="42" y2="645" stroke="black" stroke-dasharray="2,2"/>
<line x1="127" y1="620" x2="127" y2="645" stroke="black" stroke-dasharray="2,2"/>
<line x1="212" y1="620" x2="212" y2="645" stroke="black" stroke-dasharray="2,2"/>
<line x1="297" y1="620" x2="297" y2="645" stroke="black" stroke-dasharray="2,2"/>
<line x1="382" y1="620" x2="382" y2="645" stroke="black" stroke-dasharray="2,2"/>
<line x1="467" y1="620" x2="467" y2="645" stroke="black" stroke-dasharray="2,2"/>
<line x1="552" y1="620" x2="552" y2="645" stroke="black" stroke-dasharray="2,2"/>
<line x1="42" y1="645" x2="42" y2="670" stroke="black"/>
<line x1="127" y1="645" x2="127" y2="670" stroke="black"/>
<line x1="212" y1="645" x2="212" y2="670" stroke="black"/>
<line x1="297" y1="645" x2="297" y2="670" stroke="black"/>
<line x1="382" y1="645" x2="382" y2="670" stroke="black"/>
<line x1="467" y1="645" x2="467" y2="670" stroke="black"/>
<line x1="552" y1="645" x2="552" y2="670" stroke="black"/>
<path d="M 467 651 A42,6 0 0,1 466,662" stroke="black" fill="none"/><polygon fill="black" points="467,663 477,669 477,657"/>
<text x="308" y="655" textLength="156" font-family="Helvetica" font-size="10" fill="black">
complex = measure_complexity(wf)
</text>
<line x1="42" y1="670" x2="42" y2="695" stroke="black"/>
<line x1="127" y1="670" x2="127" y2="695" stroke="black"/>
<line x1="212" y1="670" x2="212" y2="695" stroke="black"/>
<line x1="297" y1="670" x2="297" y2="695" stroke="black"/>
<line x1="382" y1="670" x2="382" y2="695" stroke="black"/>
<line x1="467" y1="670" x2="467" y2="695" stroke="black"/>
<line x1="552" y1="670" x2="552" y2="695" stroke="black"/>
<line x1="467" y1="682" x2="552" y2="682" stroke="black"/>
<polygon fill="black" points="552,682 542,688 542,676"/>
<text x="466" y="680" textLength="87" font-family="Helvetica" font-size="10" fill="black">
submitWorkflow(wf)
</text>
<line x1="42" y1="695" x2="42" y2="720" stroke="black"/>
<line x1="127" y1="695" x2="127" y2="720" stroke="black"/>
<line x1="212" y1="695" x2="212" y2="720" stroke="black"/>
<line x1="297" y1="695" x2="297" y2="720" stroke="black"/>
<line x1="382" y1="695" x2="382" y2="720" stroke="black"/>
<line x1="467" y1="695" x2="467" y2="720" stroke="black"/>
<line x1="552" y1="695" x2="552" y2="720" stroke="black"/>
<line x1="552" y1="707" x2="467" y2="707" stroke="black"/>
<polygon fill="black" points="467,707 477,713 477,701"/>
<text x="469" y="705" textLength="81" font-family="Helvetica" font-size="10" fill="black">
submitActivity(act)
</text>
<line x1="42" y1="720" x2="42" y2="745" stroke="black"/>
<line x1="127" y1="720" x2="127" y2="745" stroke="black"/>
<line x1="212" y1="720" x2="212" y2="745" stroke="black"/>
<line x1="297" y1="720" x2="297" y2="745" stroke="black"/>
<line x1="382" y1="720" x2="382" y2="745" stroke="black"/>
<line x1="467" y1="720" x2="467" y2="745" stroke="black"/>
<line x1="552" y1="720" x2="552" y2="745" stroke="black"/>
<path d="M 467 726 A42,6 0 0,1 466,737" stroke="black" fill="none"/><polygon fill="black" points="467,738 477,744 477,732"/>
<text x="360" y="730" textLength="104" font-family="Helvetica" font-size="10" fill="black">
true = handle_local(act)
</text>
<line x1="42" y1="745" x2="42" y2="770" stroke="black"/>
<line x1="127" y1="745" x2="127" y2="770" stroke="black"/>
<line x1="212" y1="745" x2="212" y2="770" stroke="black"/>
<line x1="297" y1="745" x2="297" y2="770" stroke="black"/>
<line x1="382" y1="745" x2="382" y2="770" stroke="black"/>
<line x1="467" y1="745" x2="467" y2="770" stroke="black"/>
<line x1="552" y1="745" x2="552" y2="770" stroke="black"/>
<path d="M 467 751 A42,6 0 0,1 466,762" stroke="black" fill="none"/><polygon fill="black" points="467,763 477,769 477,757"/>
<text x="413" y="755" textLength="51" font-family="Helvetica" font-size="10" fill="black">
execute(wf)
</text>
</svg>
