<!DOCTYPE svg PUBLIC "-//W3C//DTD SVG 1.1//EN"
 "http://www.w3.org/Graphics/SVG/1.1/DTD/svg11.dtd">
<svg width="100%" height="100%" version="1.1"
 xmlns="http://www.w3.org/2000/svg" shape-rendering="crispEdges"
 stroke-width="1" text-rendering="geometricPrecision">
<text x="75" y="14" textLength="21" font-family="Helvetica" font-size="10" fill="black" text-anchor="middle">
User
</text>
<text x="225" y="14" textLength="21" font-family="Helvetica" font-size="10" fill="black" text-anchor="middle">
Orch
</text>
<text x="375" y="14" textLength="28" font-family="Helvetica" font-size="10" fill="black" text-anchor="middle">
Sched
</text>
<text x="525" y="14" textLength="22" font-family="Helvetica" font-size="10" fill="black" text-anchor="middle">
WFE
</text>
<line x1="75" y1="20" x2="75" y2="45" stroke="black"/>
<line x1="225" y1="20" x2="225" y2="45" stroke="black"/>
<line x1="375" y1="20" x2="375" y2="45" stroke="black"/>
<line x1="525" y1="20" x2="525" y2="45" stroke="black"/>
<line x1="75" y1="45" x2="75" y2="70" stroke="black"/>
<line x1="225" y1="45" x2="225" y2="70" stroke="black"/>
<line x1="375" y1="45" x2="375" y2="70" stroke="black"/>
<line x1="525" y1="45" x2="525" y2="70" stroke="black"/>
<line x1="75" y1="57" x2="225" y2="57" stroke="black"/>
<line x1="225" y1="57" x2="215" y2="63" stroke="black"/>
<text x="111" y="55" textLength="77" font-family="Helvetica" font-size="10" fill="black">
submit(Workflow)
</text>
<line x1="75" y1="70" x2="75" y2="95" stroke="black"/>
<line x1="225" y1="70" x2="225" y2="95" stroke="black"/>
<line x1="375" y1="70" x2="375" y2="95" stroke="black"/>
<line x1="525" y1="70" x2="525" y2="95" stroke="black"/>
<path d="M 224 87 A75,6 0 0,1 225,76" stroke="black" fill="none"/><polygon fill="black" points="225,88 215,94 215,82"/>
<text x="226" y="80" textLength="108" font-family="Helvetica" font-size="10" fill="black">
check_syntax(Workflow)
</text>
<line x1="75" y1="95" x2="75" y2="120" stroke="black"/>
<line x1="225" y1="95" x2="225" y2="120" stroke="black"/>
<line x1="375" y1="95" x2="375" y2="120" stroke="black"/>
<line x1="525" y1="95" x2="525" y2="120" stroke="black"/>
<text x="261" y="109" textLength="76" font-family="Helvetica" font-size="10" fill="black">
if the syntax is ok
</text>
<line x1="37" y1="107" x2="260" y2="107" stroke="black" stroke-dasharray="2,2"/>
<line x1="340" y1="107" x2="563" y2="107" stroke="black" stroke-dasharray="2,2"/>
<line x1="75" y1="120" x2="75" y2="145" stroke="black"/>
<line x1="225" y1="120" x2="225" y2="145" stroke="black"/>
<line x1="375" y1="120" x2="375" y2="145" stroke="black"/>
<line x1="525" y1="120" x2="525" y2="145" stroke="black"/>
<path d="M 224 137 A75,6 0 0,1 225,126" stroke="black" fill="none"/><polygon fill="black" points="225,138 215,144 215,132"/>
<text x="226" y="130" textLength="109" font-family="Helvetica" font-size="10" fill="black">
create and store new job
</text>
<line x1="75" y1="145" x2="75" y2="170" stroke="black"/>
<line x1="225" y1="145" x2="225" y2="170" stroke="black"/>
<line x1="375" y1="145" x2="375" y2="170" stroke="black"/>
<line x1="525" y1="145" x2="525" y2="170" stroke="black"/>
<line x1="225" y1="157" x2="375" y2="157" stroke="black"/>
<polygon fill="black" points="375,157 365,163 365,151"/>
<text x="255" y="155" textLength="88" font-family="Helvetica" font-size="10" fill="black">
schedule_local(Job)
</text>
<line x1="75" y1="170" x2="75" y2="195" stroke="black"/>
<line x1="225" y1="170" x2="225" y2="195" stroke="black"/>
<line x1="375" y1="170" x2="375" y2="195" stroke="black"/>
<line x1="525" y1="170" x2="525" y2="195" stroke="black"/>
<line x1="225" y1="182" x2="75" y2="182" stroke="black"/>
<line x1="75" y1="182" x2="85" y2="188" stroke="black"/>
<text x="110" y="180" textLength="79" font-family="Helvetica" font-size="10" fill="black">
submitAck(job_id)
</text>
<line x1="75" y1="195" x2="75" y2="220" stroke="black" stroke-dasharray="2,2"/>
<line x1="225" y1="195" x2="225" y2="220" stroke="black" stroke-dasharray="2,2"/>
<line x1="375" y1="195" x2="375" y2="220" stroke="black" stroke-dasharray="2,2"/>
<line x1="525" y1="195" x2="525" y2="220" stroke="black" stroke-dasharray="2,2"/>
<line x1="75" y1="220" x2="75" y2="245" stroke="black"/>
<line x1="225" y1="220" x2="225" y2="245" stroke="black"/>
<line x1="375" y1="220" x2="375" y2="245" stroke="black"/>
<line x1="525" y1="220" x2="525" y2="245" stroke="black"/>
<line x1="375" y1="232" x2="525" y2="232" stroke="black"/>
<polygon fill="black" points="525,232 515,238 515,226"/>
<text x="406" y="230" textLength="86" font-family="Helvetica" font-size="10" fill="black">
start_job(Workflow)
</text>
<line x1="75" y1="245" x2="75" y2="270" stroke="black"/>
<line x1="225" y1="245" x2="225" y2="270" stroke="black"/>
<line x1="375" y1="245" x2="375" y2="270" stroke="black"/>
<line x1="525" y1="245" x2="525" y2="270" stroke="black"/>
<line x1="525" y1="257" x2="375" y2="257" stroke="black"/>
<polygon fill="black" points="375,257 385,263 385,251"/>
<text x="401" y="255" textLength="97" font-family="Helvetica" font-size="10" fill="black">
schedule(new subjob)
</text>
<line x1="75" y1="270" x2="75" y2="295" stroke="black" stroke-dasharray="2,2"/>
<line x1="225" y1="270" x2="225" y2="295" stroke="black" stroke-dasharray="2,2"/>
<line x1="375" y1="270" x2="375" y2="295" stroke="black" stroke-dasharray="2,2"/>
<line x1="525" y1="270" x2="525" y2="295" stroke="black" stroke-dasharray="2,2"/>
<line x1="75" y1="295" x2="75" y2="320" stroke="black"/>
<line x1="225" y1="295" x2="225" y2="320" stroke="black"/>
<line x1="375" y1="295" x2="375" y2="320" stroke="black"/>
<line x1="525" y1="295" x2="525" y2="320" stroke="black"/>
<path d="M 375 301 A75,6 0 0,1 374,312" stroke="black" fill="none"/><polygon fill="black" points="375,313 385,319 385,307"/>
<text x="284" y="305" textLength="88" font-family="Helvetica" font-size="10" fill="black">
assign job to worker
</text>
</svg>
